<svg width="67" height="67" viewBox="0 0 67 67" fill="none" xmlns="http://www.w3.org/2000/svg">
<path d="M30.7075 64.1656C13.7766 64.1656 0 50.3891 0 33.4576C0 16.5261 13.7766 2.74908 30.7075 2.74908C36.595 2.74908 42.323 4.42674 47.2725 7.60366C48.2442 8.22933 48.5289 9.52464 47.9033 10.4989C47.2756 11.4732 45.9829 11.7549 45.0086 11.1297C40.7374 8.38524 35.791 6.93658 30.7075 6.93658C16.085 6.93658 4.18737 18.8346 4.18737 33.4576C4.18737 48.0801 16.085 59.9781 30.7075 59.9781C45.3296 59.9781 57.2272 48.0801 57.2272 33.4576C57.2272 32.5835 57.1853 31.7181 57.1045 30.867C56.9931 29.7138 57.836 28.692 58.9861 28.5805C60.1418 28.4742 61.1605 29.312 61.2725 30.4621C61.367 31.4477 61.4146 32.447 61.4146 33.4576C61.4146 50.3891 47.6385 64.1656 30.7075 64.1656Z" fill="#00A02B"/>
<path d="M34.1967 40.4365C33.661 40.4365 33.1248 40.2326 32.7174 39.8226L20.1553 27.2601C19.3375 26.4417 19.3375 25.1158 20.1553 24.2979C20.9732 23.48 22.2991 23.48 23.1169 24.2979L34.1998 35.3811L63.4245 6.15497C64.2428 5.3371 65.5687 5.3371 66.3866 6.15497C67.2044 6.97284 67.2044 8.29881 66.3866 9.11668L35.679 39.8252C35.2686 40.2326 34.7329 40.4365 34.1967 40.4365Z" fill="#00A02B"/>
</svg>
