<svg width="88" height="88" viewBox="0 0 88 88" fill="none" xmlns="http://www.w3.org/2000/svg">
<g clip-path="url(#clip0_7_90)">
<path d="M1.375 50.875H19.25C20.075 50.875 20.625 50.325 20.625 49.5C20.625 48.675 20.075 48.125 19.25 48.125H2.75V15.125H61.875V35.75C61.875 36.575 62.425 37.125 63.25 37.125H66C66.825 37.125 67.375 36.575 67.375 35.75C67.375 34.925 66.825 34.375 66 34.375H64.625V13.75C64.625 12.925 64.075 12.375 63.25 12.375H1.375C0.55 12.375 0 12.925 0 13.75V49.5C0 50.325 0.55 50.875 1.375 50.875Z" fill="#00A02B"/>
<path d="M22 28.7375C22 34.1 26.2625 38.3625 31.625 38.3625C36.9875 38.3625 41.25 34.1 41.25 28.7375C41.25 23.375 36.9875 19.1125 31.625 19.1125C26.2625 19.1125 22 23.5125 22 28.7375ZM38.5 28.7375C38.5 32.5875 35.475 35.6125 31.625 35.6125C27.775 35.6125 24.75 32.5875 24.75 28.7375C24.75 24.8875 27.775 21.8625 31.625 21.8625C35.475 21.8625 38.5 25.025 38.5 28.7375Z" fill="#00A02B"/>
<path d="M25.7125 81.5375L21.5875 77.4125C21.0375 76.8625 20.2125 76.8625 19.6625 77.4125C19.1125 77.9625 19.1125 78.7875 19.6625 79.3375L21.45 81.125H15.95C10.8625 81.125 6.875 77.1375 6.875 72.05V65.175L8.6625 66.9625C8.9375 67.2375 9.2125 67.375 9.625 67.375C10.0375 67.375 10.3125 67.2375 10.5875 66.9625C11.1375 66.4125 11.1375 65.5875 10.5875 65.0375L6.4625 60.9125C6.325 60.775 6.1875 60.6375 6.05 60.6375C5.775 60.5 5.3625 60.5 4.95 60.6375C4.8125 60.775 4.675 60.775 4.5375 60.9125L0.4125 65.0375C-0.1375 65.5875 -0.1375 66.4125 0.4125 66.9625C0.9625 67.5125 1.7875 67.5125 2.3375 66.9625L4.125 65.175V72.05C4.125 78.5125 9.35 83.875 15.95 83.875H21.45L19.6625 85.6625C19.1125 86.2125 19.1125 87.0375 19.6625 87.5875C19.9375 87.8625 20.35 88 20.625 88C20.9 88 21.3125 87.8625 21.5875 87.5875L25.7125 83.4625C25.85 83.325 25.9875 83.1875 25.9875 83.05C26.125 82.775 26.125 82.3625 25.9875 81.95C25.85 81.8125 25.85 81.675 25.7125 81.5375Z" fill="#00A02B"/>
<path d="M8.25 28.1875C8.25 30.8 10.45 33 13.0625 33C15.675 33 17.875 30.8 17.875 28.1875C17.875 25.575 15.675 23.375 13.0625 23.375C10.45 23.375 8.25 25.575 8.25 28.1875ZM15.125 28.1875C15.125 29.2875 14.1625 30.25 13.0625 30.25C11.9625 30.25 11 29.2875 11 28.1875C11 27.0875 11.9625 26.125 13.0625 26.125C14.1625 26.125 15.125 27.0875 15.125 28.1875Z" fill="#00A02B"/>
<path d="M45.375 28.1875C45.375 30.8 47.575 33 50.1875 33C52.8 33 55 30.8 55 28.1875C55 25.575 52.8 23.375 50.1875 23.375C47.575 23.375 45.375 25.575 45.375 28.1875ZM52.25 28.1875C52.25 29.2875 51.2875 30.25 50.1875 30.25C49.0875 30.25 48.125 29.2875 48.125 28.1875C48.125 27.0875 49.0875 26.125 50.1875 26.125C51.2875 26.125 52.25 27.0875 52.25 28.1875Z" fill="#00A02B"/>
<path d="M86.625 39.875H24.75C23.925 39.875 23.375 40.425 23.375 41.25V75.625C23.375 76.45 23.925 77 24.75 77H86.625C87.45 77 88 76.45 88 75.625V41.25C88 40.425 87.45 39.875 86.625 39.875ZM85.25 74.25H26.125V42.625H85.25V74.25Z" fill="#00A02B"/>
<path d="M55 67.2375C60.3625 67.2375 64.625 62.975 64.625 57.6125C64.625 52.25 60.3625 47.9875 55 47.9875C49.6375 47.9875 45.375 52.25 45.375 57.6125C45.375 62.975 49.6375 67.2375 55 67.2375ZM55 50.7375C58.85 50.7375 61.875 53.7625 61.875 57.6125C61.875 61.4625 58.85 64.4875 55 64.4875C51.15 64.4875 48.125 61.4625 48.125 57.6125C48.125 53.7625 51.15 50.7375 55 50.7375Z" fill="#00A02B"/>
<path d="M36.4375 61.875C39.05 61.875 41.25 59.675 41.25 57.0625C41.25 54.45 39.05 52.25 36.4375 52.25C33.825 52.25 31.625 54.45 31.625 57.0625C31.625 59.675 33.825 61.875 36.4375 61.875ZM36.4375 55C37.5375 55 38.5 55.9625 38.5 57.0625C38.5 58.1625 37.5375 59.125 36.4375 59.125C35.3375 59.125 34.375 58.1625 34.375 57.0625C34.375 55.9625 35.3375 55 36.4375 55Z" fill="#00A02B"/>
<path d="M73.5625 61.875C76.175 61.875 78.375 59.675 78.375 57.0625C78.375 54.45 76.175 52.25 73.5625 52.25C70.95 52.25 68.75 54.45 68.75 57.0625C68.75 59.675 70.95 61.875 73.5625 61.875ZM73.5625 55C74.6625 55 75.625 55.9625 75.625 57.0625C75.625 58.1625 74.6625 59.125 73.5625 59.125C72.4625 59.125 71.5 58.1625 71.5 57.0625C71.5 55.9625 72.4625 55 73.5625 55Z" fill="#00A02B"/>
<path d="M62.2875 6.4625L66.4125 10.5875C66.6875 10.8625 67.1 11 67.375 11C67.7875 11 68.0625 10.8625 68.3375 10.5875C68.8875 10.0375 68.8875 9.2125 68.3375 8.6625L66.55 6.875H72.05C77 6.875 81.125 11 81.125 15.95V22.825L79.3375 21.0375C78.7875 20.4875 77.9625 20.4875 77.4125 21.0375C76.8625 21.5875 76.8625 22.4125 77.4125 22.9625L81.5375 27.0875C81.8125 27.3625 82.0875 27.5 82.5 27.5C82.9125 27.5 83.1875 27.3625 83.4625 27.0875L87.5875 22.9625C88.1375 22.4125 88.1375 21.5875 87.5875 21.0375C87.0375 20.4875 86.2125 20.4875 85.6625 21.0375L83.875 22.825V15.95C83.875 9.4875 78.65 4.125 72.05 4.125H66.55L68.3375 2.3375C68.8875 1.7875 68.8875 0.9625 68.3375 0.4125C67.7875 -0.1375 66.9625 -0.1375 66.4125 0.4125L62.2875 4.5375C62.15 4.675 62.0125 4.8125 62.0125 4.95C61.875 5.0875 61.875 5.225 61.875 5.5C61.875 5.6375 61.875 5.9125 62.0125 6.05C62.15 6.1875 62.15 6.325 62.2875 6.4625Z" fill="#00A02B"/>
<path d="M7.70002 7.97503L9.62502 6.05002L11.55 7.97503L13.475 6.05002L11.55 4.12502L13.475 2.20002L11.55 0.275024L9.62502 2.20002L7.70002 0.275024L5.77502 2.20002L7.70002 4.12502L5.77502 6.05002L7.70002 7.97503Z" fill="#00A02B"/>
<path d="M68.75 20.625C67.925 20.625 67.375 21.175 67.375 22C67.375 22.825 67.925 23.375 68.75 23.375H72.875C73.7 23.375 74.25 22.825 74.25 22C74.25 21.175 73.7 20.625 72.875 20.625H68.75Z" fill="#00A02B"/>
<path d="M52.25 81.125H48.125C47.3 81.125 46.75 81.675 46.75 82.5C46.75 83.325 47.3 83.875 48.125 83.875H52.25C53.075 83.875 53.625 83.325 53.625 82.5C53.625 81.675 53.075 81.125 52.25 81.125Z" fill="#00A02B"/>
<path d="M75.625 81.125H71.5C70.675 81.125 70.125 81.675 70.125 82.5C70.125 83.325 70.675 83.875 71.5 83.875H75.625C76.45 83.875 77 83.325 77 82.5C77 81.675 76.45 81.125 75.625 81.125Z" fill="#00A02B"/>
<path d="M37.125 6.875H41.25C42.075 6.875 42.625 6.325 42.625 5.5C42.625 4.675 42.075 4.125 41.25 4.125H37.125C36.3 4.125 35.75 4.675 35.75 5.5C35.75 6.325 36.3 6.875 37.125 6.875Z" fill="#00A02B"/>
</g>
<defs>
<clipPath id="clip0_7_90">
<rect width="88" height="88" fill="white"/>
</clipPath>
</defs>
</svg>
