<svg width="81" height="81" viewBox="0 0 81 81" fill="none" xmlns="http://www.w3.org/2000/svg">
<path d="M40.5 56.226C38.3617 56.226 36.6223 57.9656 36.6223 60.1037C36.6223 61.7888 37.703 63.2256 39.2073 63.759V67.859C39.2073 68.573 39.786 69.1515 40.4998 69.1515C41.2137 69.1515 41.7924 68.573 41.7924 67.859V63.759C43.2967 63.2254 44.3774 61.7886 44.3774 60.1037C44.3777 57.9656 42.6383 56.226 40.5 56.226ZM40.5 61.3962C39.7871 61.3962 39.2075 60.8164 39.2075 60.1037C39.2075 59.3909 39.7873 58.8112 40.5 58.8112C41.2129 58.8112 41.7925 59.391 41.7925 60.1037C41.7925 60.8164 41.2129 61.3962 40.5 61.3962Z" fill="#00A02B"/>
<path d="M59.0265 33.6065C65.441 33.6065 70.6595 28.388 70.6595 21.9735C70.6595 15.559 65.441 10.3405 59.0265 10.3405C58.0525 10.3405 57.0919 10.4605 56.1572 10.699C55.0279 7.81713 53.09 5.25108 50.606 3.37811C47.6748 1.16817 44.1803 0 40.5 0C36.8197 0 33.3252 1.16817 30.394 3.37827C27.91 5.25108 25.9717 7.81729 24.8428 10.6991C23.9081 10.4605 22.9475 10.3405 21.9735 10.3405C15.559 10.3405 10.3405 15.559 10.3405 21.9735C10.3405 28.388 15.559 33.6065 21.9735 33.6065C22.6873 33.6065 23.266 33.0279 23.266 32.3139C23.266 31.6 22.6873 31.0214 21.9735 31.0214C16.9844 31.0214 12.9257 26.9624 12.9257 21.9735C12.9257 16.9845 16.9845 12.9257 21.9735 12.9257C23.0788 12.9257 24.1617 13.1245 25.1916 13.517C25.5265 13.6444 25.8996 13.6273 26.2217 13.4693C26.5436 13.3111 26.7852 13.0264 26.889 12.683C28.686 6.73755 34.2831 2.58504 40.5 2.58504C46.7169 2.58504 52.314 6.7374 54.1112 12.6828C54.2149 13.0261 54.4565 13.3109 54.7785 13.4691C55.1004 13.6273 55.4738 13.6445 55.8085 13.5169C56.8384 13.1245 57.9212 12.9255 59.0267 12.9255C64.0158 12.9255 68.0745 16.9845 68.0745 21.9733C68.0745 26.9621 64.0156 31.0213 59.0267 31.0213H55.0887C54.4317 23.5474 48.1417 17.6648 40.5002 17.6648C32.4228 17.6648 25.8512 24.2362 25.8512 32.3138V44.3776H21.9735C21.2596 44.3776 20.6809 44.9561 20.6809 45.6701V79.7075C20.6809 80.4214 21.2596 81 21.9735 81H59.0267C59.7405 81 60.3192 80.4214 60.3192 79.7075V45.6702C60.3192 44.9563 59.7405 44.3777 59.0267 44.3777H55.149V33.6065H59.0265ZM28.4362 32.3138C28.4362 25.6618 33.848 20.25 40.5 20.25C47.152 20.25 52.5638 25.6618 52.5638 32.3138V44.3776H49.9787V32.3138C49.9787 27.0872 45.7266 22.835 40.5 22.835C35.2734 22.835 31.0213 27.0872 31.0213 32.3138V44.3776H28.4362V32.3138ZM43.516 31.0213H33.7297C34.3367 27.836 37.1407 25.4202 40.5002 25.4202C44.3013 25.4202 47.3937 28.5128 47.3937 32.3138V44.3776H33.6065V33.6063H43.516C44.2298 33.6063 44.8085 33.0278 44.8085 32.3138C44.8085 31.5998 44.2298 31.0213 43.516 31.0213ZM57.734 46.9628V78.415H23.266V46.9628H57.734Z" fill="#00A02B"/>
<path d="M33.6065 74.5372C34.3203 74.5372 34.899 73.9586 34.899 73.2447C34.899 72.5309 34.3203 71.9522 33.6065 71.9522C32.8926 71.9522 32.3139 72.5309 32.3139 73.2447C32.3139 73.9586 32.8926 74.5372 33.6065 74.5372Z" fill="#00A02B"/>
<path d="M28.4362 69.367C29.1501 69.367 29.7287 68.7883 29.7287 68.0745C29.7287 67.3607 29.1501 66.782 28.4362 66.782C27.7224 66.782 27.1437 67.3607 27.1437 68.0745C27.1437 68.7883 27.7224 69.367 28.4362 69.367Z" fill="#00A02B"/>
</svg>
