<svg width="81" height="81" viewBox="0 0 81 81" fill="none" xmlns="http://www.w3.org/2000/svg">
<g clip-path="url(#clip0_1_41)">
<path d="M69.1463 11.9825C61.7593 4.59546 51.6235 0.0429688 40.4571 0.0429688C29.2906 0.0429688 19.1548 4.59546 11.8537 11.8966C4.55249 19.1978 0 29.3335 0 40.5C0 51.4088 4.2948 61.2869 11.3383 68.588C18.3818 75.8892 28.088 80.5276 38.9968 80.9571C39.8558 80.9571 40.6288 80.2699 40.6288 79.4109C40.6288 78.552 39.9417 77.7789 39.0827 77.7789C29.1188 77.4353 20.0997 73.1405 13.6575 66.4406C7.21527 59.6548 3.26405 50.5499 3.26405 40.5C3.26405 30.1925 7.47296 20.9157 14.1729 14.1299C20.8727 7.43003 30.1495 3.30702 40.4571 3.30702C50.7646 3.30702 60.0414 7.51593 66.7412 14.2158C73.4411 20.9157 77.6501 30.2784 77.6501 40.5859C77.6501 43.85 77.2206 47.0281 76.4475 50.1204C75.6744 53.1267 74.4719 56.1331 72.8399 58.8818C72.4104 59.6548 72.6681 60.5997 73.4411 61.1151C74.2142 61.5446 75.1591 61.2869 75.6744 60.5138C77.3924 57.5074 78.6808 54.2434 79.6257 50.8934C80.4846 47.5435 81 44.0218 81 40.5859C81 29.4194 76.4475 19.2837 69.1463 11.9825Z" fill="#00A02B"/>
<path d="M40.3712 8.89026C31.6957 8.89026 23.7932 12.412 18.0382 18.167C12.369 23.8362 8.7614 31.7386 8.7614 40.5C8.7614 47.5435 11.0806 54.1575 15.1177 59.5689C19.1548 64.8945 24.9099 69.0175 31.6957 70.9072C32.5546 71.1649 33.4136 70.6495 33.6713 69.7906C33.9289 68.9316 33.4136 68.0727 32.5546 67.815C26.456 66.097 21.3022 62.4035 17.6946 57.6792C14.3446 53.2985 12.369 47.973 12.0254 42.2179H16.0626C16.9215 42.2179 17.6946 41.5308 17.6946 40.5859C17.6946 39.727 17.0074 38.9539 16.0626 38.9539H12.0254C12.4549 31.7386 15.4613 25.2964 20.2715 20.5721C25.0817 15.7619 31.5239 12.7556 38.6532 12.3261V16.3632C38.6532 17.2222 39.3404 17.9952 40.2853 17.9952C41.1442 17.9952 41.9173 17.3081 41.9173 16.3632V12.3261C49.1326 12.7556 55.5748 15.7619 60.299 20.5721C65.1092 25.3823 68.1156 31.8245 68.5451 38.9539H64.508C63.649 38.9539 62.8759 39.6411 62.8759 40.5859C62.8759 41.4449 63.5631 42.2179 64.508 42.2179H68.5451C68.4592 43.0769 68.4592 43.9359 68.2874 44.7948C68.1156 46.1692 67.772 47.5435 67.3425 48.9178C67.0848 49.7768 67.6002 50.6358 68.3733 50.8934C69.4899 51.1511 70.3489 50.6357 70.6066 49.7768C71.0361 48.2307 71.4655 46.6845 71.6373 45.2243C71.895 43.6782 71.9809 42.132 71.9809 40.5C71.9809 31.8245 68.4592 23.9221 62.7041 18.167C57.035 12.4979 49.1326 8.89026 40.3712 8.89026Z" fill="#00A02B"/>
<path d="M40.457 20.9157C39.5981 20.9157 38.825 21.6029 38.825 22.5477V35.6898C38.1379 35.9475 37.4507 36.2911 36.9353 36.8065L36.8494 36.8924C36.334 37.4078 35.9046 38.0949 35.6469 38.868H25.7688C24.9099 38.868 24.1368 39.5552 24.1368 40.5C24.1368 41.359 24.824 42.132 25.7688 42.132H35.561C35.8187 42.9051 36.2481 43.5923 36.7635 44.1076C37.7084 45.0525 38.9968 45.5679 40.3712 45.5679C41.7455 45.5679 43.0339 44.9666 43.9788 44.1076C44.9236 43.1628 45.439 41.8744 45.439 40.5C45.439 39.1257 44.8377 37.8372 43.9788 36.8924C43.4634 36.377 42.7762 35.9475 42.0032 35.6898V22.5477C42.0891 21.6888 41.316 20.9157 40.457 20.9157ZM42.3468 40.5C42.3468 41.0154 42.0891 41.5308 41.7455 41.8744C41.4019 42.2179 40.9724 42.3897 40.457 42.3897C39.9417 42.3897 39.4263 42.2179 39.1686 41.8744C38.825 41.5308 38.6532 41.1013 38.6532 40.5859C38.6532 40.0705 38.825 39.6411 39.1686 39.2975C39.1686 39.2975 39.1686 39.2975 39.2545 39.2116C39.5981 38.868 40.0276 38.6962 40.5429 38.6962C41.0583 38.6962 41.5737 38.868 41.8314 39.2116C42.175 39.5552 42.3468 39.9846 42.3468 40.5Z" fill="#00A02B"/>
<path d="M53.7709 47.973C49.2184 47.973 45.0954 49.7768 42.175 52.7831C39.1686 55.7895 37.3648 59.9125 37.3648 64.3791C37.3648 68.9316 39.1686 73.0546 42.175 75.9751C45.0954 78.8955 49.2184 80.7853 53.7709 80.7853C58.3234 80.7853 62.4464 78.9814 65.3669 75.9751C68.3733 72.9687 70.1771 68.8457 70.1771 64.3791C70.1771 59.8266 68.3733 55.7036 65.3669 52.7831C62.3605 49.7768 58.2375 47.973 53.7709 47.973ZM63.1336 73.6559C60.7285 76.061 57.4645 77.5212 53.7709 77.5212C50.0774 77.5212 46.8134 76.061 44.4083 73.6559C42.0032 71.2508 40.5429 67.9867 40.5429 64.2932C40.5429 60.6856 42.0032 57.3356 44.4083 54.9305C46.8134 52.5255 50.0774 51.0652 53.7709 51.0652C57.4645 51.0652 60.7285 52.5255 63.1336 54.9305C65.5387 57.3356 66.9989 60.5997 66.9989 64.2932C66.9989 67.9867 65.5387 71.2508 63.1336 73.6559Z" fill="#00A02B"/>
<path d="M50.0114 70V58.3636H54.6023C55.4848 58.3636 56.2367 58.5322 56.858 58.8693C57.4792 59.2027 57.9527 59.6667 58.2784 60.2614C58.608 60.8523 58.7727 61.5341 58.7727 62.3068C58.7727 63.0795 58.6061 63.7614 58.2727 64.3523C57.9394 64.9432 57.4564 65.4034 56.8239 65.733C56.1951 66.0625 55.4337 66.2273 54.5398 66.2273H51.6136V64.2557H54.142C54.6155 64.2557 55.0057 64.1742 55.3125 64.0114C55.6231 63.8447 55.8542 63.6155 56.0057 63.3239C56.161 63.0284 56.2386 62.6894 56.2386 62.3068C56.2386 61.9205 56.161 61.5833 56.0057 61.2955C55.8542 61.0038 55.6231 60.7784 55.3125 60.6193C55.0019 60.4564 54.608 60.375 54.1307 60.375H52.4716V70H50.0114Z" fill="#00A02B"/>
</g>
<defs>
<clipPath id="clip0_1_41">
<rect width="81" height="81" fill="white"/>
</clipPath>
</defs>
</svg>
