<svg width="763" height="315" viewBox="0 0 763 315" fill="none" xmlns="http://www.w3.org/2000/svg">
<path d="M211.722 223.089C211.76 245.067 193.953 262.903 171.975 262.903L79.8697 262.903C79.8697 240.002 98.4348 221.437 121.336 221.437H211.719L211.722 223.089Z" fill="#007DEE"/>
<path d="M52.0977 238.46L52.0977 75.8858C75.1317 75.8858 93.8044 94.5585 93.8044 117.593L93.8044 196.753C93.8044 219.787 75.1317 238.46 52.0977 238.46Z" fill="#006CCD"/>
<path d="M93.8044 152.576C70.7704 152.576 52.0977 133.903 52.0977 110.869L52.0977 75.8858C75.1317 75.8858 93.8044 94.5585 93.8044 117.593V152.576Z" fill="#00E5BA"/>
<path d="M79.8713 51.332H170.133C193.14 51.332 211.792 69.9834 211.792 92.9911H121.53C98.5227 92.9911 79.8713 74.3397 79.8713 51.332Z" fill="#007DEE"/>
<path d="M194.193 59.0471C212.865 72.1215 217.403 97.8573 204.329 116.53L153.476 189.155L148.184 185.449C132.434 174.421 128.607 152.714 139.635 136.965L194.193 59.0471Z" fill="#006CCD"/>
<path d="M147.451 125.643L203.776 199.695C216.992 217.071 213.442 241.9 195.887 254.877L139.458 178.54C130.467 166.377 130.305 149.815 139.056 137.479L147.451 125.643Z" fill="#00E5BA"/>
<path d="M195.785 254.897L171.193 221.435H211.719C211.719 221.435 213.08 229.718 207.934 240.288C202.787 250.858 195.785 254.897 195.785 254.897Z" fill="#14B2C6"/>
<path d="M194.144 58.9519C194.144 58.9519 201.473 63.5325 206.873 73.2722C212.273 83.0119 211.791 92.9927 211.791 92.9927H170.427L194.144 58.9519Z" fill="#1891FF"/>
<path d="M310.742 155.69C314.606 157.436 317.675 160.094 319.949 163.666C322.298 167.158 323.473 171.166 323.473 175.689C323.473 182.118 321.313 187.594 316.993 192.118C312.674 196.641 307.445 198.903 301.307 198.903H266.638V115.571H298.693C304.603 115.571 309.643 117.793 313.811 122.237C317.979 126.602 320.063 131.841 320.063 137.952C320.063 145.729 316.956 151.642 310.742 155.69ZM298.693 123.428H274.595V152.475H298.693C302.406 152.475 305.551 151.086 308.127 148.309C310.78 145.452 312.106 141.999 312.106 137.952C312.106 133.983 310.78 130.571 308.127 127.714C305.551 124.856 302.406 123.428 298.693 123.428ZM301.307 191.046C305.248 191.046 308.582 189.578 311.31 186.642C314.114 183.626 315.516 179.975 315.516 175.689C315.516 171.483 314.114 167.872 311.31 164.856C308.582 161.84 305.248 160.332 301.307 160.332H274.595V191.046H301.307Z" fill="#005EB2"/>
<path d="M362.247 137.952C370.659 137.952 377.441 141.086 382.594 147.356C387.823 153.547 390.438 160.888 390.438 169.38C390.438 170.253 390.362 171.483 390.21 173.07H340.309C341.067 179.102 343.492 183.904 347.584 187.475C351.752 190.967 356.867 192.713 362.929 192.713C367.249 192.713 370.962 191.8 374.069 189.975C377.252 188.07 379.639 185.61 381.23 182.594L387.823 186.642C385.322 190.848 381.912 194.181 377.593 196.641C373.273 199.102 368.348 200.332 362.816 200.332C353.874 200.332 346.599 197.395 340.991 191.522C335.383 185.65 332.58 178.189 332.58 169.142C332.58 160.253 335.346 152.832 340.877 146.88C346.409 140.928 353.533 137.952 362.247 137.952ZM362.247 145.571C356.337 145.571 351.373 147.436 347.357 151.166C343.416 154.816 341.067 159.578 340.309 165.451H382.708C381.95 159.182 379.639 154.301 375.774 150.809C371.909 147.317 367.4 145.571 362.247 145.571Z" fill="#005EB2"/>
<path d="M427.606 200.332C419.422 200.332 412.601 197.514 407.145 191.88C401.689 186.165 398.961 178.785 398.961 169.737C398.961 159.578 400.401 151.801 403.28 146.404C406.16 140.928 411.995 135.967 420.786 131.523C422.453 130.65 424.65 129.618 427.378 128.428C430.182 127.237 432.266 126.285 433.63 125.571C435.07 124.856 436.624 123.944 438.291 122.833C439.958 121.642 441.208 120.333 442.042 118.904C442.875 117.476 443.406 115.769 443.633 113.785L449.544 117.357C449.241 119.261 448.635 121.047 447.725 122.714C446.816 124.38 445.869 125.729 444.884 126.761C443.974 127.793 442.497 128.944 440.451 130.214C438.48 131.404 436.927 132.277 435.79 132.833C434.729 133.309 432.835 134.142 430.107 135.333C427.454 136.523 425.673 137.317 424.764 137.713C419.459 140.094 415.557 142.594 413.056 145.213C410.555 147.753 408.775 151.086 407.714 155.213C410.29 151.642 413.549 149.023 417.489 147.356C421.506 145.61 425.408 144.737 429.197 144.737C436.775 144.737 443.027 147.356 447.953 152.594C452.954 157.753 455.455 164.38 455.455 172.475C455.455 180.491 452.803 187.157 447.498 192.475C442.269 197.713 435.639 200.332 427.606 200.332ZM427.606 192.475C433.517 192.475 438.367 190.61 442.156 186.88C446.02 183.07 447.953 178.269 447.953 172.475C447.953 166.602 446.134 161.801 442.497 158.07C438.935 154.261 434.161 152.356 428.174 152.356C422.794 152.356 417.906 154.142 413.511 157.713C409.116 161.205 406.918 165.888 406.918 171.761C406.918 177.792 408.888 182.753 412.829 186.642C416.845 190.53 421.771 192.475 427.606 192.475Z" fill="#005EB2"/>
<path d="M498.011 168.427C504.073 171.285 507.105 176.007 507.105 182.594C507.105 187.673 505.134 191.919 501.194 195.332C497.253 198.745 491.759 200.451 484.712 200.451C473.269 200.451 465.539 195.689 461.523 186.165L471.526 179.975C473.572 185.927 478.005 188.903 484.825 188.903C488.008 188.903 490.509 188.229 492.328 186.88C494.146 185.451 495.056 183.586 495.056 181.284C495.056 179.221 494.336 177.594 492.896 176.404C491.456 175.134 489.448 174.499 486.871 174.499H478.801V163.189H484.825C487.326 163.189 489.258 162.594 490.622 161.404C492.062 160.134 492.782 158.428 492.782 156.285C492.782 154.221 491.987 152.555 490.395 151.285C488.804 149.936 486.682 149.261 484.03 149.261C478.346 149.261 474.406 151.88 472.208 157.118L462.205 151.166C466.449 142.277 473.648 137.833 483.802 137.833C490.168 137.833 495.207 139.539 498.92 142.952C502.709 146.285 504.604 150.372 504.604 155.213C504.604 161.166 502.406 165.57 498.011 168.427Z" fill="#005EB2"/>
<path d="M562.146 139.38H574.422V198.903H562.146V190.332C557.523 197.078 550.892 200.451 542.253 200.451C534.448 200.451 527.78 197.435 522.248 191.403C516.716 185.292 513.95 177.872 513.95 169.142C513.95 160.332 516.716 152.912 522.248 146.88C527.78 140.848 534.448 137.833 542.253 137.833C550.892 137.833 557.523 141.166 562.146 147.832V139.38ZM531.341 182.832C534.751 186.403 539.033 188.189 544.186 188.189C549.339 188.189 553.62 186.403 557.031 182.832C560.441 179.181 562.146 174.618 562.146 169.142C562.146 163.666 560.441 159.142 557.031 155.57C553.62 151.92 549.339 150.094 544.186 150.094C539.033 150.094 534.751 151.92 531.341 155.57C527.931 159.142 526.226 163.666 526.226 169.142C526.226 174.618 527.931 179.181 531.341 182.832Z" fill="#005EB2"/>
<path d="M598.052 131.047V119.857H629.88V131.047H598.052ZM629.88 139.38H639.314V198.903H627.265V161.047L598.166 198.903H588.731V139.38H600.78V177.118L629.88 139.38Z" fill="#005EB2"/>
<path d="M711.53 139.38V198.903H699.595V159.737L683.226 186.999H681.749L665.494 159.856V198.903H653.559V139.38H666.062L682.544 166.88L699.026 139.38H711.53Z" fill="#005EB2"/>
</svg>
