<svg width="1516" height="303" viewBox="0 0 1516 303" fill="none" xmlns="http://www.w3.org/2000/svg">
<g filter="url(#filter0_d_2121_15)">
<rect x="158" y="16" width="278" height="263" rx="10" fill="white" fill-opacity="0.3" shape-rendering="crispEdges"/>
</g>
<g filter="url(#filter1_d_2121_15)">
<rect x="458" y="16" width="278" height="263" rx="10" fill="white" fill-opacity="0.3" shape-rendering="crispEdges"/>
</g>
<g filter="url(#filter2_d_2121_15)">
<rect x="756" y="16" width="278" height="263" rx="10" fill="white" fill-opacity="0.3" shape-rendering="crispEdges"/>
</g>
<g filter="url(#filter3_d_2121_15)">
<rect x="1058" y="16" width="278" height="263" rx="10" fill="white" fill-opacity="0.3" shape-rendering="crispEdges"/>
</g>
<path d="M228.432 209.727C228.432 211.295 228.138 212.637 227.551 213.754C226.969 214.867 226.173 215.719 225.165 216.311C224.161 216.903 223.022 217.199 221.749 217.199C220.475 217.199 219.334 216.903 218.325 216.311C217.321 215.714 216.526 214.86 215.939 213.747C215.357 212.63 215.065 211.29 215.065 209.727C215.065 208.16 215.357 206.82 215.939 205.707C216.526 204.59 217.321 203.735 218.325 203.143C219.334 202.552 220.475 202.256 221.749 202.256C223.022 202.256 224.161 202.552 225.165 203.143C226.173 203.735 226.969 204.59 227.551 205.707C228.138 206.82 228.432 208.16 228.432 209.727ZM225.783 209.727C225.783 208.624 225.61 207.694 225.264 206.936C224.923 206.174 224.45 205.598 223.844 205.21C223.238 204.817 222.539 204.621 221.749 204.621C220.958 204.621 220.259 204.817 219.653 205.21C219.047 205.598 218.571 206.174 218.226 206.936C217.885 207.694 217.714 208.624 217.714 209.727C217.714 210.83 217.885 211.763 218.226 212.526C218.571 213.283 219.047 213.858 219.653 214.251C220.259 214.64 220.958 214.834 221.749 214.834C222.539 214.834 223.238 214.64 223.844 214.251C224.45 213.858 224.923 213.283 225.264 212.526C225.61 211.763 225.783 210.83 225.783 209.727ZM229.843 220.168V214.884H230.71C230.942 214.704 231.136 214.46 231.292 214.152C231.449 213.839 231.576 213.473 231.676 213.051C231.78 212.625 231.865 212.149 231.931 211.624C231.998 211.093 232.057 210.523 232.109 209.912L232.422 206.091H240.305V214.884H241.995V220.168H239.51V217H232.372V220.168H229.843ZM233.352 214.884H237.848V208.165H234.652L234.481 209.912C234.386 211.067 234.261 212.057 234.105 212.881C233.949 213.705 233.698 214.372 233.352 214.884ZM248.673 217.213C247.608 217.213 246.685 216.979 245.903 216.51C245.122 216.041 244.516 215.385 244.085 214.543C243.659 213.7 243.446 212.715 243.446 211.588C243.446 210.461 243.659 209.474 244.085 208.626C244.516 207.779 245.122 207.121 245.903 206.652C246.685 206.183 247.608 205.949 248.673 205.949C249.739 205.949 250.662 206.183 251.443 206.652C252.224 207.121 252.828 207.779 253.254 208.626C253.685 209.474 253.901 210.461 253.901 211.588C253.901 212.715 253.685 213.7 253.254 214.543C252.828 215.385 252.224 216.041 251.443 216.51C250.662 216.979 249.739 217.213 248.673 217.213ZM248.688 215.153C249.265 215.153 249.748 214.995 250.136 214.678C250.525 214.356 250.813 213.925 251.003 213.385C251.197 212.845 251.294 212.244 251.294 211.581C251.294 210.913 251.197 210.31 251.003 209.77C250.813 209.225 250.525 208.792 250.136 208.47C249.748 208.148 249.265 207.987 248.688 207.987C248.096 207.987 247.603 208.148 247.21 208.47C246.822 208.792 246.531 209.225 246.337 209.77C246.147 210.31 246.053 210.913 246.053 211.581C246.053 212.244 246.147 212.845 246.337 213.385C246.531 213.925 246.822 214.356 247.21 214.678C247.603 214.995 248.096 215.153 248.688 215.153ZM264.826 202.057L265.721 203.719C265.403 203.993 265.048 204.192 264.655 204.315C264.262 204.438 263.801 204.519 263.27 204.557C262.745 204.59 262.12 204.614 261.395 204.628C260.581 204.647 259.916 204.801 259.4 205.089C258.883 205.378 258.488 205.816 258.213 206.403C257.939 206.986 257.759 207.729 257.674 208.634H257.794C258.135 207.966 258.614 207.457 259.229 207.107C259.845 206.756 260.567 206.581 261.395 206.581C262.3 206.581 263.097 206.785 263.789 207.192C264.485 207.594 265.027 208.179 265.415 208.946C265.808 209.713 266.005 210.641 266.005 211.73C266.005 212.852 265.794 213.825 265.373 214.649C264.951 215.468 264.352 216.1 263.576 216.545C262.804 216.991 261.888 217.213 260.827 217.213C259.771 217.213 258.853 216.983 258.071 216.524C257.295 216.06 256.694 215.376 256.267 214.472C255.846 213.562 255.635 212.443 255.635 211.112V210.132C255.635 207.566 256.114 205.651 257.07 204.386C258.026 203.122 259.444 202.478 261.324 202.455C261.883 202.445 262.382 202.443 262.823 202.447C263.268 202.452 263.656 202.431 263.988 202.384C264.319 202.336 264.598 202.227 264.826 202.057ZM260.841 215.153C261.367 215.153 261.821 215.018 262.205 214.749C262.588 214.474 262.882 214.086 263.086 213.584C263.294 213.082 263.398 212.488 263.398 211.801C263.398 211.124 263.294 210.549 263.086 210.075C262.877 209.597 262.581 209.232 262.198 208.982C261.814 208.731 261.357 208.605 260.827 208.605C260.429 208.605 260.072 208.676 259.755 208.818C259.437 208.96 259.167 209.169 258.945 209.443C258.722 209.718 258.552 210.052 258.434 210.445C258.315 210.838 258.251 211.29 258.242 211.801C258.242 212.829 258.474 213.645 258.938 214.251C259.402 214.853 260.036 215.153 260.841 215.153ZM268.192 221.091V206.091H270.721V207.895H270.87C271.002 207.63 271.189 207.348 271.431 207.05C271.672 206.747 271.999 206.489 272.411 206.276C272.823 206.058 273.348 205.949 273.988 205.949C274.83 205.949 275.59 206.164 276.267 206.595C276.949 207.021 277.489 207.653 277.887 208.491C278.289 209.325 278.49 210.348 278.49 211.56C278.49 212.758 278.294 213.776 277.901 214.614C277.508 215.452 276.973 216.091 276.296 216.531C275.619 216.972 274.852 217.192 273.995 217.192C273.37 217.192 272.851 217.088 272.439 216.879C272.027 216.671 271.696 216.42 271.445 216.126C271.199 215.828 271.007 215.546 270.87 215.281H270.763V221.091H268.192ZM270.713 211.545C270.713 212.251 270.813 212.869 271.012 213.399C271.215 213.929 271.507 214.344 271.885 214.642C272.269 214.936 272.733 215.082 273.277 215.082C273.846 215.082 274.321 214.931 274.705 214.628C275.088 214.32 275.377 213.901 275.571 213.371C275.77 212.836 275.87 212.227 275.87 211.545C275.87 210.868 275.773 210.267 275.578 209.741C275.384 209.216 275.096 208.804 274.712 208.506C274.328 208.207 273.85 208.058 273.277 208.058C272.728 208.058 272.262 208.203 271.878 208.491C271.495 208.78 271.203 209.185 271.005 209.706C270.81 210.227 270.713 210.84 270.713 211.545ZM285.522 217.213C284.428 217.213 283.483 216.986 282.688 216.531C281.897 216.072 281.289 215.423 280.863 214.585C280.436 213.742 280.223 212.75 280.223 211.609C280.223 210.487 280.436 209.502 280.863 208.655C281.293 207.803 281.895 207.14 282.667 206.666C283.438 206.188 284.345 205.949 285.387 205.949C286.059 205.949 286.694 206.058 287.29 206.276C287.891 206.489 288.422 206.82 288.881 207.27C289.345 207.72 289.71 208.293 289.975 208.989C290.24 209.68 290.373 210.504 290.373 211.46V212.249H281.431V210.516H287.908C287.903 210.023 287.797 209.585 287.588 209.202C287.38 208.813 287.089 208.508 286.715 208.286C286.346 208.063 285.915 207.952 285.422 207.952C284.897 207.952 284.435 208.08 284.037 208.335C283.64 208.586 283.329 208.918 283.107 209.33C282.889 209.737 282.778 210.184 282.773 210.672V212.185C282.773 212.819 282.889 213.364 283.121 213.818C283.353 214.268 283.677 214.614 284.094 214.855C284.511 215.092 284.998 215.21 285.557 215.21C285.931 215.21 286.27 215.158 286.573 215.054C286.876 214.945 287.139 214.786 287.361 214.578C287.584 214.37 287.752 214.112 287.865 213.804L290.266 214.074C290.114 214.708 289.826 215.262 289.4 215.736C288.978 216.205 288.438 216.569 287.78 216.83C287.122 217.085 286.369 217.213 285.522 217.213ZM300.04 210.48V212.589H294.231V210.48H300.04ZM295.026 206.091V217H292.548V206.091H295.026ZM301.724 206.091V217H299.252V206.091H301.724ZM306.804 213.52L311.172 206.091H313.814V217H311.328V209.564L306.974 217H304.325V206.091H306.804V213.52ZM321.283 217.213C320.19 217.213 319.245 216.986 318.45 216.531C317.659 216.072 317.05 215.423 316.624 214.585C316.198 213.742 315.985 212.75 315.985 211.609C315.985 210.487 316.198 209.502 316.624 208.655C317.055 207.803 317.656 207.14 318.428 206.666C319.2 206.188 320.107 205.949 321.148 205.949C321.821 205.949 322.455 206.058 323.052 206.276C323.653 206.489 324.183 206.82 324.643 207.27C325.107 207.72 325.471 208.293 325.737 208.989C326.002 209.68 326.134 210.504 326.134 211.46V212.249H317.192V210.516H323.67C323.665 210.023 323.558 209.585 323.35 209.202C323.142 208.813 322.851 208.508 322.477 208.286C322.107 208.063 321.676 207.952 321.184 207.952C320.658 207.952 320.197 208.08 319.799 208.335C319.401 208.586 319.091 208.918 318.869 209.33C318.651 209.737 318.54 210.184 318.535 210.672V212.185C318.535 212.819 318.651 213.364 318.883 213.818C319.115 214.268 319.439 214.614 319.856 214.855C320.272 215.092 320.76 215.21 321.319 215.21C321.693 215.21 322.031 215.158 322.335 215.054C322.638 214.945 322.9 214.786 323.123 214.578C323.345 214.37 323.513 214.112 323.627 213.804L326.028 214.074C325.876 214.708 325.587 215.262 325.161 215.736C324.74 216.205 324.2 216.569 323.542 216.83C322.884 217.085 322.131 217.213 321.283 217.213ZM338.292 202.256C338.988 202.26 339.665 202.384 340.323 202.625C340.986 202.862 341.582 203.25 342.113 203.79C342.643 204.325 343.064 205.042 343.377 205.942C343.689 206.841 343.846 207.954 343.846 209.28C343.85 210.53 343.718 211.647 343.448 212.632C343.183 213.612 342.801 214.441 342.304 215.118C341.807 215.795 341.208 216.311 340.507 216.666C339.807 217.021 339.018 217.199 338.142 217.199C337.224 217.199 336.409 217.019 335.699 216.659C334.994 216.299 334.423 215.807 333.988 215.182C333.552 214.557 333.284 213.842 333.185 213.037H335.777C335.91 213.615 336.18 214.074 336.587 214.415C336.999 214.751 337.517 214.919 338.142 214.919C339.151 214.919 339.927 214.481 340.472 213.605C341.016 212.729 341.289 211.512 341.289 209.955H341.189C340.957 210.371 340.657 210.731 340.287 211.034C339.918 211.332 339.499 211.562 339.03 211.723C338.566 211.884 338.074 211.964 337.553 211.964C336.701 211.964 335.934 211.761 335.252 211.354C334.575 210.946 334.037 210.388 333.64 209.678C333.247 208.967 333.048 208.155 333.043 207.241C333.043 206.295 333.261 205.445 333.696 204.692C334.137 203.934 334.75 203.338 335.536 202.902C336.322 202.462 337.24 202.246 338.292 202.256ZM338.299 204.386C337.787 204.386 337.326 204.512 336.914 204.763C336.507 205.009 336.185 205.345 335.948 205.771C335.716 206.193 335.6 206.664 335.6 207.185C335.605 207.701 335.721 208.17 335.948 208.591C336.18 209.012 336.495 209.346 336.892 209.592C337.295 209.839 337.754 209.962 338.27 209.962C338.654 209.962 339.011 209.888 339.343 209.741C339.674 209.595 339.963 209.391 340.209 209.131C340.46 208.866 340.654 208.565 340.792 208.229C340.934 207.893 341.002 207.537 340.998 207.163C340.998 206.666 340.879 206.207 340.642 205.786C340.41 205.364 340.091 205.026 339.684 204.77C339.281 204.514 338.819 204.386 338.299 204.386ZM351.26 202.256C351.956 202.26 352.633 202.384 353.292 202.625C353.954 202.862 354.551 203.25 355.081 203.79C355.612 204.325 356.033 205.042 356.346 205.942C356.658 206.841 356.814 207.954 356.814 209.28C356.819 210.53 356.686 211.647 356.417 212.632C356.151 213.612 355.77 214.441 355.273 215.118C354.776 215.795 354.177 216.311 353.476 216.666C352.775 217.021 351.987 217.199 351.111 217.199C350.193 217.199 349.378 217.019 348.668 216.659C347.962 216.299 347.392 215.807 346.956 215.182C346.521 214.557 346.253 213.842 346.154 213.037H348.746C348.879 213.615 349.149 214.074 349.556 214.415C349.968 214.751 350.486 214.919 351.111 214.919C352.12 214.919 352.896 214.481 353.441 213.605C353.985 212.729 354.257 211.512 354.257 209.955H354.158C353.926 210.371 353.625 210.731 353.256 211.034C352.887 211.332 352.468 211.562 351.999 211.723C351.535 211.884 351.042 211.964 350.522 211.964C349.669 211.964 348.902 211.761 348.221 211.354C347.543 210.946 347.006 210.388 346.608 209.678C346.215 208.967 346.016 208.155 346.012 207.241C346.012 206.295 346.23 205.445 346.665 204.692C347.105 203.934 347.719 203.338 348.505 202.902C349.291 202.462 350.209 202.246 351.26 202.256ZM351.267 204.386C350.756 204.386 350.294 204.512 349.882 204.763C349.475 205.009 349.153 205.345 348.917 205.771C348.685 206.193 348.569 206.664 348.569 207.185C348.573 207.701 348.689 208.17 348.917 208.591C349.149 209.012 349.463 209.346 349.861 209.592C350.264 209.839 350.723 209.962 351.239 209.962C351.623 209.962 351.98 209.888 352.311 209.741C352.643 209.595 352.932 209.391 353.178 209.131C353.429 208.866 353.623 208.565 353.76 208.229C353.902 207.893 353.971 207.537 353.966 207.163C353.966 206.666 353.848 206.207 353.611 205.786C353.379 205.364 353.06 205.026 352.652 204.77C352.25 204.514 351.788 204.386 351.267 204.386ZM366.956 214.273V213.506C366.956 212.942 367.075 212.424 367.311 211.95C367.553 211.477 367.903 211.096 368.363 210.807C368.822 210.518 369.378 210.374 370.032 210.374C370.704 210.374 371.267 210.518 371.722 210.807C372.176 211.091 372.52 211.47 372.752 211.943C372.989 212.417 373.107 212.937 373.107 213.506V214.273C373.107 214.836 372.989 215.355 372.752 215.828C372.515 216.302 372.167 216.683 371.708 216.972C371.253 217.26 370.694 217.405 370.032 217.405C369.369 217.405 368.808 217.26 368.348 216.972C367.889 216.683 367.541 216.302 367.304 215.828C367.072 215.355 366.956 214.836 366.956 214.273ZM368.81 213.506V214.273C368.81 214.647 368.9 214.99 369.08 215.303C369.26 215.615 369.577 215.771 370.032 215.771C370.491 215.771 370.806 215.617 370.976 215.31C371.151 214.997 371.239 214.652 371.239 214.273V213.506C371.239 213.127 371.156 212.781 370.99 212.469C370.825 212.152 370.505 211.993 370.032 211.993C369.587 211.993 369.272 212.152 369.087 212.469C368.902 212.781 368.81 213.127 368.81 213.506ZM359.563 205.949V205.182C359.563 204.614 359.684 204.093 359.925 203.619C360.167 203.146 360.517 202.767 360.976 202.483C361.435 202.194 361.992 202.05 362.645 202.05C363.313 202.05 363.874 202.194 364.328 202.483C364.788 202.767 365.133 203.146 365.365 203.619C365.597 204.093 365.713 204.614 365.713 205.182V205.949C365.713 206.517 365.595 207.038 365.358 207.511C365.126 207.98 364.781 208.357 364.321 208.641C363.862 208.925 363.303 209.067 362.645 209.067C361.978 209.067 361.414 208.925 360.955 208.641C360.5 208.357 360.155 207.978 359.918 207.504C359.681 207.031 359.563 206.512 359.563 205.949ZM361.431 205.182V205.949C361.431 206.328 361.518 206.673 361.694 206.986C361.873 207.294 362.191 207.447 362.645 207.447C363.1 207.447 363.412 207.294 363.583 206.986C363.758 206.673 363.846 206.328 363.846 205.949V205.182C363.846 204.803 363.763 204.457 363.597 204.145C363.431 203.828 363.114 203.669 362.645 203.669C362.195 203.669 361.881 203.828 361.701 204.145C361.521 204.462 361.431 204.808 361.431 205.182ZM360.373 217L370.373 202.455H372.148L362.148 217H360.373Z" fill="black"/>
<path d="M489.225 217L484.438 210.643H483.146V217H480.511V202.455H483.146V208.435H483.806L488.977 202.455H492.222L486.477 209.088L492.471 217H489.225ZM498.105 217.213C497.04 217.213 496.116 216.979 495.335 216.51C494.554 216.041 493.948 215.385 493.517 214.543C493.091 213.7 492.878 212.715 492.878 211.588C492.878 210.461 493.091 209.474 493.517 208.626C493.948 207.779 494.554 207.121 495.335 206.652C496.116 206.183 497.04 205.949 498.105 205.949C499.17 205.949 500.094 206.183 500.875 206.652C501.656 207.121 502.26 207.779 502.686 208.626C503.117 209.474 503.332 210.461 503.332 211.588C503.332 212.715 503.117 213.7 502.686 214.543C502.26 215.385 501.656 216.041 500.875 216.51C500.094 216.979 499.17 217.213 498.105 217.213ZM498.119 215.153C498.697 215.153 499.18 214.995 499.568 214.678C499.956 214.356 500.245 213.925 500.434 213.385C500.629 212.845 500.726 212.244 500.726 211.581C500.726 210.913 500.629 210.31 500.434 209.77C500.245 209.225 499.956 208.792 499.568 208.47C499.18 208.148 498.697 207.987 498.119 207.987C497.527 207.987 497.035 208.148 496.642 208.47C496.254 208.792 495.962 209.225 495.768 209.77C495.579 210.31 495.484 210.913 495.484 211.581C495.484 212.244 495.579 212.845 495.768 213.385C495.962 213.925 496.254 214.356 496.642 214.678C497.035 214.995 497.527 215.153 498.119 215.153ZM513.007 210.48V212.589H507.198V210.48H513.007ZM507.993 206.091V217H505.514V206.091H507.993ZM514.691 206.091V217H512.219V206.091H514.691ZM522.242 220.707V202.455H524.82V220.707H522.242ZM522.242 217.213C521.442 217.213 520.71 217.078 520.047 216.808C519.385 216.538 518.812 216.155 518.329 215.658C517.85 215.161 517.479 214.569 517.214 213.882C516.953 213.191 516.823 212.426 516.823 211.588C516.823 210.75 516.953 209.985 517.214 209.294C517.479 208.603 517.85 208.009 518.329 207.511C518.812 207.009 519.385 206.624 520.047 206.354C520.71 206.084 521.442 205.949 522.242 205.949H522.789V217.213H522.242ZM522.242 215.139H522.562V208.023H522.242C521.787 208.023 521.385 208.117 521.035 208.307C520.689 208.491 520.398 208.75 520.161 209.081C519.929 209.408 519.751 209.786 519.628 210.217C519.51 210.643 519.451 211.1 519.451 211.588C519.451 212.237 519.557 212.831 519.77 213.371C519.983 213.906 520.296 214.334 520.708 214.656C521.125 214.978 521.636 215.139 522.242 215.139ZM524.82 217.213H524.273V205.949H524.82C525.62 205.949 526.352 206.084 527.015 206.354C527.678 206.624 528.248 207.009 528.726 207.511C529.209 208.009 529.581 208.603 529.841 209.294C530.107 209.985 530.239 210.75 530.239 211.588C530.239 212.426 530.107 213.191 529.841 213.882C529.581 214.569 529.209 215.161 528.726 215.658C528.248 216.155 527.678 216.538 527.015 216.808C526.352 217.078 525.62 217.213 524.82 217.213ZM524.82 215.139C525.279 215.139 525.682 215.047 526.028 214.862C526.373 214.678 526.662 214.422 526.894 214.095C527.131 213.768 527.308 213.392 527.427 212.966C527.545 212.535 527.604 212.076 527.604 211.588C527.604 210.939 527.5 210.345 527.292 209.805C527.083 209.266 526.771 208.835 526.354 208.513C525.942 208.186 525.431 208.023 524.82 208.023H524.501V215.139H524.82ZM534.888 213.52L539.256 206.091H541.898V217H539.412V209.564L535.058 217H532.409V206.091H534.888V213.52ZM543.572 220.168V214.884H544.438C544.67 214.704 544.865 214.46 545.021 214.152C545.177 213.839 545.305 213.473 545.404 213.051C545.508 212.625 545.594 212.149 545.66 211.624C545.726 211.093 545.785 210.523 545.838 209.912L546.15 206.091H554.034V214.884H555.724V220.168H553.238V217H546.1V220.168H543.572ZM547.08 214.884H551.576V208.165H548.38L548.21 209.912C548.115 211.067 547.99 212.057 547.833 212.881C547.677 213.705 547.426 214.372 547.08 214.884ZM562.473 217.213C561.379 217.213 560.434 216.986 559.639 216.531C558.848 216.072 558.24 215.423 557.814 214.585C557.388 213.742 557.175 212.75 557.175 211.609C557.175 210.487 557.388 209.502 557.814 208.655C558.245 207.803 558.846 207.14 559.618 206.666C560.39 206.188 561.296 205.949 562.338 205.949C563.01 205.949 563.645 206.058 564.241 206.276C564.843 206.489 565.373 206.82 565.832 207.27C566.296 207.72 566.661 208.293 566.926 208.989C567.191 209.68 567.324 210.504 567.324 211.46V212.249H558.382V210.516H564.859C564.854 210.023 564.748 209.585 564.54 209.202C564.331 208.813 564.04 208.508 563.666 208.286C563.297 208.063 562.866 207.952 562.373 207.952C561.848 207.952 561.386 208.08 560.988 208.335C560.591 208.586 560.281 208.918 560.058 209.33C559.84 209.737 559.729 210.184 559.724 210.672V212.185C559.724 212.819 559.84 213.364 560.072 213.818C560.304 214.268 560.629 214.614 561.045 214.855C561.462 215.092 561.95 215.21 562.508 215.21C562.882 215.21 563.221 215.158 563.524 215.054C563.827 214.945 564.09 214.786 564.312 214.578C564.535 214.37 564.703 214.112 564.817 213.804L567.217 214.074C567.066 214.708 566.777 215.262 566.351 215.736C565.929 216.205 565.39 216.569 564.731 216.83C564.073 217.085 563.32 217.213 562.473 217.213ZM576.992 210.48V212.589H571.182V210.48H576.992ZM571.977 206.091V217H569.499V206.091H571.977ZM578.675 206.091V217H576.203V206.091H578.675ZM590.488 206.091V215.082H592.157V220.509H589.643V217H581.276V206.091H583.755V214.891H588.03V206.091H590.488ZM596.743 213.52L601.111 206.091H603.753V217H601.267V209.564L596.914 217H594.264V206.091H596.743V213.52ZM609.532 217.22C608.841 217.22 608.219 217.097 607.665 216.851C607.115 216.6 606.68 216.231 606.358 215.743C606.041 215.255 605.882 214.654 605.882 213.939C605.882 213.323 605.996 212.814 606.223 212.412C606.45 212.009 606.76 211.688 607.153 211.446C607.546 211.205 607.989 211.022 608.481 210.899C608.979 210.771 609.492 210.679 610.023 210.622C610.662 210.556 611.18 210.497 611.578 210.445C611.976 210.388 612.265 210.303 612.444 210.189C612.629 210.071 612.721 209.888 612.721 209.642V209.599C612.721 209.064 612.563 208.65 612.246 208.357C611.928 208.063 611.471 207.916 610.875 207.916C610.245 207.916 609.746 208.054 609.376 208.328C609.012 208.603 608.765 208.927 608.638 209.301L606.237 208.96C606.426 208.297 606.739 207.743 607.175 207.298C607.61 206.848 608.143 206.512 608.773 206.29C609.402 206.062 610.098 205.949 610.861 205.949C611.386 205.949 611.909 206.01 612.43 206.134C612.951 206.257 613.427 206.46 613.858 206.744C614.289 207.024 614.634 207.405 614.895 207.888C615.16 208.371 615.292 208.974 615.292 209.699V217H612.821V215.501H612.736C612.579 215.804 612.359 216.089 612.075 216.354C611.796 216.614 611.443 216.825 611.017 216.986C610.595 217.142 610.101 217.22 609.532 217.22ZM610.2 215.331C610.716 215.331 611.164 215.229 611.542 215.026C611.921 214.817 612.212 214.543 612.416 214.202C612.624 213.861 612.729 213.489 612.729 213.087V211.801C612.648 211.867 612.511 211.929 612.317 211.986C612.127 212.043 611.914 212.092 611.677 212.135C611.441 212.178 611.206 212.215 610.974 212.249C610.742 212.282 610.541 212.31 610.371 212.334C609.987 212.386 609.644 212.471 609.341 212.589C609.038 212.708 608.799 212.874 608.623 213.087C608.448 213.295 608.361 213.565 608.361 213.896C608.361 214.37 608.533 214.727 608.879 214.969C609.225 215.21 609.665 215.331 610.2 215.331ZM617.125 217L617.111 214.884H617.487C617.771 214.884 618.01 214.82 618.204 214.692C618.398 214.564 618.559 214.351 618.687 214.053C618.815 213.75 618.915 213.342 618.986 212.831C619.057 212.32 619.106 211.683 619.135 210.92L619.327 206.091H627.281V217H624.795V208.2H621.663L621.493 211.716C621.45 212.625 621.348 213.413 621.187 214.081C621.031 214.744 620.809 215.291 620.52 215.722C620.236 216.152 619.878 216.474 619.447 216.688C619.016 216.896 618.507 217 617.92 217H617.125ZM631.61 209.642H634.827C636.219 209.642 637.296 209.981 638.059 210.658C638.821 211.335 639.205 212.223 639.209 213.321C639.205 214.036 639.029 214.67 638.684 215.224C638.343 215.778 637.846 216.214 637.192 216.531C636.544 216.844 635.755 217 634.827 217H629.87V206.091H632.349V214.891H634.827C635.386 214.891 635.845 214.749 636.205 214.464C636.565 214.176 636.745 213.806 636.745 213.357C636.745 212.883 636.565 212.497 636.205 212.199C635.845 211.901 635.386 211.751 634.827 211.751H631.61V209.642ZM648.906 210.48V212.589H643.096V210.48H648.906ZM643.892 206.091V217H641.413V206.091H643.892ZM650.589 206.091V217H648.117V206.091H650.589ZM657.949 217.213C656.883 217.213 655.96 216.979 655.179 216.51C654.398 216.041 653.791 215.385 653.361 214.543C652.934 213.7 652.721 212.715 652.721 211.588C652.721 210.461 652.934 209.474 653.361 208.626C653.791 207.779 654.398 207.121 655.179 206.652C655.96 206.183 656.883 205.949 657.949 205.949C659.014 205.949 659.937 206.183 660.719 206.652C661.5 207.121 662.104 207.779 662.53 208.626C662.961 209.474 663.176 210.461 663.176 211.588C663.176 212.715 662.961 213.7 662.53 214.543C662.104 215.385 661.5 216.041 660.719 216.51C659.937 216.979 659.014 217.213 657.949 217.213ZM657.963 215.153C658.541 215.153 659.023 214.995 659.412 214.678C659.8 214.356 660.089 213.925 660.278 213.385C660.472 212.845 660.569 212.244 660.569 211.581C660.569 210.913 660.472 210.31 660.278 209.77C660.089 209.225 659.8 208.792 659.412 208.47C659.023 208.148 658.541 207.987 657.963 207.987C657.371 207.987 656.879 208.148 656.486 208.47C656.097 208.792 655.806 209.225 655.612 209.77C655.423 210.31 655.328 210.913 655.328 211.581C655.328 212.244 655.423 212.845 655.612 213.385C655.806 213.925 656.097 214.356 656.486 214.678C656.879 214.995 657.371 215.153 657.963 215.153ZM670.117 217.213C669.028 217.213 668.093 216.974 667.311 216.496C666.535 216.018 665.936 215.357 665.514 214.514C665.098 213.667 664.889 212.691 664.889 211.588C664.889 210.48 665.102 209.502 665.529 208.655C665.955 207.803 666.556 207.14 667.333 206.666C668.114 206.188 669.037 205.949 670.102 205.949C670.988 205.949 671.771 206.112 672.453 206.439C673.14 206.761 673.687 207.218 674.094 207.81C674.501 208.397 674.733 209.083 674.79 209.869H672.333C672.233 209.344 671.996 208.906 671.622 208.555C671.253 208.2 670.758 208.023 670.138 208.023C669.612 208.023 669.151 208.165 668.753 208.449C668.355 208.728 668.045 209.131 667.823 209.656C667.605 210.182 667.496 210.812 667.496 211.545C667.496 212.289 667.605 212.928 667.823 213.463C668.04 213.993 668.346 214.403 668.739 214.692C669.137 214.976 669.603 215.118 670.138 215.118C670.517 215.118 670.855 215.047 671.154 214.905C671.457 214.758 671.71 214.547 671.914 214.273C672.117 213.998 672.257 213.664 672.333 213.271H674.79C674.728 214.043 674.501 214.727 674.108 215.324C673.715 215.916 673.18 216.38 672.503 216.716C671.826 217.047 671.03 217.213 670.117 217.213ZM676.109 208.2V206.091H685.655V208.2H682.125V217H679.639V208.2H676.109ZM689.442 209.642H692.659C694.051 209.642 695.128 209.981 695.891 210.658C696.653 211.335 697.037 212.223 697.041 213.321C697.037 214.036 696.861 214.67 696.516 215.224C696.175 215.778 695.678 216.214 695.024 216.531C694.376 216.844 693.587 217 692.659 217H687.702V206.091H690.181V214.891H692.659C693.218 214.891 693.677 214.749 694.037 214.464C694.397 214.176 694.577 213.806 694.577 213.357C694.577 212.883 694.397 212.497 694.037 212.199C693.677 211.901 693.218 211.751 692.659 211.751H689.442V209.642ZM551.199 244.168V238.884H552.065C552.297 238.704 552.491 238.46 552.648 238.152C552.804 237.839 552.932 237.473 553.031 237.051C553.135 236.625 553.221 236.149 553.287 235.624C553.353 235.093 553.412 234.523 553.464 233.912L553.777 230.091H561.661V238.884H563.351V244.168H560.865V241H553.727V244.168H551.199ZM554.707 238.884H559.203V232.165H556.007L555.837 233.912C555.742 235.067 555.616 236.057 555.46 236.881C555.304 237.705 555.053 238.372 554.707 238.884ZM568.409 241.22C567.718 241.22 567.096 241.097 566.542 240.851C565.992 240.6 565.557 240.231 565.235 239.743C564.917 239.255 564.759 238.654 564.759 237.939C564.759 237.323 564.873 236.814 565.1 236.412C565.327 236.009 565.637 235.688 566.03 235.446C566.423 235.205 566.866 235.022 567.358 234.899C567.855 234.771 568.369 234.679 568.9 234.622C569.539 234.556 570.057 234.497 570.455 234.445C570.853 234.388 571.141 234.303 571.321 234.189C571.506 234.071 571.598 233.888 571.598 233.642V233.599C571.598 233.064 571.44 232.65 571.123 232.357C570.805 232.063 570.348 231.916 569.752 231.916C569.122 231.916 568.623 232.054 568.253 232.328C567.889 232.603 567.642 232.927 567.515 233.301L565.114 232.96C565.303 232.297 565.616 231.743 566.051 231.298C566.487 230.848 567.02 230.512 567.65 230.29C568.279 230.062 568.975 229.949 569.738 229.949C570.263 229.949 570.786 230.01 571.307 230.134C571.828 230.257 572.304 230.46 572.735 230.744C573.166 231.024 573.511 231.405 573.772 231.888C574.037 232.371 574.169 232.974 574.169 233.699V241H571.698V239.501H571.613C571.456 239.804 571.236 240.089 570.952 240.354C570.673 240.614 570.32 240.825 569.894 240.986C569.472 241.142 568.978 241.22 568.409 241.22ZM569.077 239.331C569.593 239.331 570.041 239.229 570.419 239.026C570.798 238.817 571.089 238.543 571.293 238.202C571.501 237.861 571.605 237.489 571.605 237.087V235.801C571.525 235.867 571.388 235.929 571.194 235.986C571.004 236.043 570.791 236.092 570.554 236.135C570.318 236.178 570.083 236.215 569.851 236.249C569.619 236.282 569.418 236.31 569.248 236.334C568.864 236.386 568.521 236.471 568.218 236.589C567.915 236.708 567.676 236.874 567.5 237.087C567.325 237.295 567.238 237.565 567.238 237.896C567.238 238.37 567.41 238.727 567.756 238.969C568.102 239.21 568.542 239.331 569.077 239.331ZM584.248 234.48V236.589H578.438V234.48H584.248ZM579.233 230.091V241H576.755V230.091H579.233ZM585.931 230.091V241H583.459V230.091H585.931ZM596.025 234.48V236.589H590.215V234.48H596.025ZM591.011 230.091V241H588.532V230.091H591.011ZM597.708 230.091V241H595.237V230.091H597.708ZM602.049 233.642H605.267C606.659 233.642 607.736 233.981 608.498 234.658C609.261 235.335 609.644 236.223 609.649 237.321C609.644 238.036 609.469 238.67 609.123 239.224C608.782 239.778 608.285 240.214 607.632 240.531C606.983 240.844 606.195 241 605.267 241H600.309V230.091H602.788V238.891H605.267C605.825 238.891 606.285 238.749 606.645 238.464C607.004 238.176 607.184 237.806 607.184 237.357C607.184 236.883 607.004 236.497 606.645 236.199C606.285 235.901 605.825 235.751 605.267 235.751H602.049V233.642ZM611.005 241V230.091H613.576V241H611.005ZM618.33 230.091L620.531 234.118L622.768 230.091H625.489L622.2 235.545L625.545 241H622.839L620.531 237.072L618.244 241H615.517L618.841 235.545L615.602 230.091H618.33Z" fill="black"/>
<path d="M799.894 220.509V214.848H800.867C801.194 214.588 801.499 214.221 801.784 213.747C802.068 213.274 802.309 212.625 802.508 211.801C802.707 210.977 802.844 209.912 802.92 208.605L803.303 202.455H812.6V214.848H814.22V220.494H811.691V217H802.423V220.509H799.894ZM803.936 214.848H810.072V204.663H805.676L805.448 208.605C805.387 209.595 805.287 210.48 805.15 211.261C805.013 212.043 804.84 212.732 804.632 213.328C804.423 213.92 804.191 214.427 803.936 214.848ZM821.082 217.213C819.988 217.213 819.044 216.986 818.248 216.531C817.458 216.072 816.849 215.423 816.423 214.585C815.997 213.742 815.784 212.75 815.784 211.609C815.784 210.487 815.997 209.502 816.423 208.655C816.854 207.803 817.455 207.14 818.227 206.666C818.999 206.188 819.906 205.949 820.947 205.949C821.62 205.949 822.254 206.058 822.851 206.276C823.452 206.489 823.982 206.82 824.442 207.27C824.906 207.72 825.27 208.293 825.535 208.989C825.8 209.68 825.933 210.504 825.933 211.46V212.249H816.991V210.516H823.469C823.464 210.023 823.357 209.585 823.149 209.202C822.941 208.813 822.649 208.508 822.275 208.286C821.906 208.063 821.475 207.952 820.983 207.952C820.457 207.952 819.996 208.08 819.598 208.335C819.2 208.586 818.89 208.918 818.667 209.33C818.45 209.737 818.338 210.184 818.334 210.672V212.185C818.334 212.819 818.45 213.364 818.682 213.818C818.914 214.268 819.238 214.614 819.655 214.855C820.071 215.092 820.559 215.21 821.118 215.21C821.492 215.21 821.83 215.158 822.133 215.054C822.436 214.945 822.699 214.786 822.922 214.578C823.144 214.37 823.312 214.112 823.426 213.804L825.827 214.074C825.675 214.708 825.386 215.262 824.96 215.736C824.539 216.205 823.999 216.569 823.341 216.83C822.683 217.085 821.93 217.213 821.082 217.213ZM835.601 210.48V212.589H829.791V210.48H835.601ZM830.587 206.091V217H828.108V206.091H830.587ZM837.284 206.091V217H834.813V206.091H837.284ZM841.626 209.642H844.843C846.235 209.642 847.312 209.981 848.074 210.658C848.837 211.335 849.22 212.223 849.225 213.321C849.22 214.036 849.045 214.67 848.699 215.224C848.358 215.778 847.861 216.214 847.208 216.531C846.559 216.844 845.771 217 844.843 217H839.885V206.091H842.364V214.891H844.843C845.402 214.891 845.861 214.749 846.221 214.464C846.581 214.176 846.76 213.806 846.76 213.357C846.76 212.883 846.581 212.497 846.221 212.199C845.861 211.901 845.402 211.751 844.843 211.751H841.626V209.642ZM858.644 206.091V208.2H853.943V217H851.428V206.091H858.644ZM863.184 213.52L867.552 206.091H870.194V217H867.709V209.564L863.355 217H860.706V206.091H863.184V213.52ZM879.394 221.091C879.043 221.091 878.719 221.063 878.421 221.006C878.127 220.954 877.893 220.892 877.718 220.821L878.314 218.818C878.688 218.927 879.022 218.979 879.316 218.974C879.609 218.97 879.867 218.877 880.09 218.697C880.317 218.522 880.509 218.229 880.665 217.817L880.885 217.227L876.929 206.091H879.656L882.171 214.33H882.284L884.806 206.091H887.54L883.172 218.321C882.968 218.899 882.699 219.393 882.362 219.805C882.026 220.222 881.614 220.539 881.127 220.757C880.644 220.98 880.066 221.091 879.394 221.091ZM894.28 217V206.091H898.861C900.154 206.091 901.174 206.349 901.922 206.865C902.675 207.381 903.051 208.101 903.051 209.024C903.051 209.635 902.838 210.134 902.412 210.523C901.991 210.906 901.415 211.164 900.686 211.297C901.259 211.344 901.761 211.489 902.192 211.73C902.628 211.972 902.968 212.289 903.215 212.682C903.461 213.075 903.584 213.527 903.584 214.038C903.584 214.64 903.425 215.163 903.108 215.608C902.796 216.048 902.339 216.392 901.737 216.638C901.141 216.879 900.416 217 899.564 217H894.28ZM896.688 214.976H899.564C900.038 214.976 900.409 214.865 900.679 214.642C900.949 214.415 901.084 214.107 901.084 213.719C901.084 213.269 900.949 212.916 900.679 212.661C900.409 212.4 900.038 212.27 899.564 212.27H896.688V214.976ZM896.688 210.608H898.911C899.261 210.608 899.562 210.558 899.813 210.459C900.064 210.355 900.255 210.21 900.388 210.026C900.521 209.836 900.587 209.611 900.587 209.351C900.587 208.977 900.433 208.683 900.125 208.47C899.822 208.257 899.401 208.151 898.861 208.151H896.688V210.608ZM908.845 217.22C908.154 217.22 907.531 217.097 906.977 216.851C906.428 216.6 905.992 216.231 905.67 215.743C905.353 215.255 905.194 214.654 905.194 213.939C905.194 213.323 905.308 212.814 905.535 212.412C905.763 212.009 906.073 211.688 906.466 211.446C906.859 211.205 907.301 211.022 907.794 210.899C908.291 210.771 908.805 210.679 909.335 210.622C909.974 210.556 910.493 210.497 910.89 210.445C911.288 210.388 911.577 210.303 911.757 210.189C911.942 210.071 912.034 209.888 912.034 209.642V209.599C912.034 209.064 911.875 208.65 911.558 208.357C911.241 208.063 910.784 207.916 910.187 207.916C909.558 207.916 909.058 208.054 908.689 208.328C908.324 208.603 908.078 208.927 907.95 209.301L905.55 208.96C905.739 208.297 906.051 207.743 906.487 207.298C906.923 206.848 907.455 206.512 908.085 206.29C908.715 206.062 909.411 205.949 910.173 205.949C910.699 205.949 911.222 206.01 911.743 206.134C912.264 206.257 912.739 206.46 913.17 206.744C913.601 207.024 913.947 207.405 914.207 207.888C914.472 208.371 914.605 208.974 914.605 209.699V217H912.133V215.501H912.048C911.892 215.804 911.672 216.089 911.388 216.354C911.108 216.614 910.756 216.825 910.329 216.986C909.908 217.142 909.413 217.22 908.845 217.22ZM909.513 215.331C910.029 215.331 910.476 215.229 910.855 215.026C911.234 214.817 911.525 214.543 911.729 214.202C911.937 213.861 912.041 213.489 912.041 213.087V211.801C911.961 211.867 911.823 211.929 911.629 211.986C911.44 212.043 911.227 212.092 910.99 212.135C910.753 212.178 910.519 212.215 910.287 212.249C910.055 212.282 909.854 212.31 909.683 212.334C909.3 212.386 908.956 212.471 908.653 212.589C908.35 212.708 908.111 212.874 907.936 213.087C907.761 213.295 907.673 213.565 907.673 213.896C907.673 214.37 907.846 214.727 908.192 214.969C908.537 215.21 908.978 215.331 909.513 215.331ZM921.949 217.213C920.86 217.213 919.925 216.974 919.143 216.496C918.367 216.018 917.768 215.357 917.346 214.514C916.93 213.667 916.721 212.691 916.721 211.588C916.721 210.48 916.934 209.502 917.361 208.655C917.787 207.803 918.388 207.14 919.165 206.666C919.946 206.188 920.869 205.949 921.934 205.949C922.82 205.949 923.604 206.112 924.285 206.439C924.972 206.761 925.519 207.218 925.926 207.81C926.333 208.397 926.565 209.083 926.622 209.869H924.165C924.065 209.344 923.828 208.906 923.454 208.555C923.085 208.2 922.59 208.023 921.97 208.023C921.444 208.023 920.983 208.165 920.585 208.449C920.187 208.728 919.877 209.131 919.655 209.656C919.437 210.182 919.328 210.812 919.328 211.545C919.328 212.289 919.437 212.928 919.655 213.463C919.872 213.993 920.178 214.403 920.571 214.692C920.969 214.976 921.435 215.118 921.97 215.118C922.349 215.118 922.687 215.047 922.986 214.905C923.289 214.758 923.542 214.547 923.746 214.273C923.949 213.998 924.089 213.664 924.165 213.271H926.622C926.56 214.043 926.333 214.727 925.94 215.324C925.547 215.916 925.012 216.38 924.335 216.716C923.658 217.047 922.863 217.213 921.949 217.213ZM942.806 206.091V217H940.335V206.091H942.806ZM941.649 211.02V213.122C941.369 213.245 941.052 213.357 940.697 213.456C940.347 213.551 939.975 213.626 939.582 213.683C939.194 213.74 938.805 213.768 938.417 213.768C936.959 213.768 935.806 213.442 934.958 212.788C934.115 212.13 933.694 211.105 933.694 209.713V206.077H936.151V209.713C936.151 210.182 936.234 210.558 936.4 210.842C936.566 211.126 936.817 211.335 937.153 211.467C937.489 211.595 937.91 211.659 938.417 211.659C938.985 211.659 939.525 211.602 940.036 211.489C940.548 211.375 941.085 211.219 941.649 211.02ZM950.223 217.213C949.129 217.213 948.184 216.986 947.389 216.531C946.598 216.072 945.99 215.423 945.564 214.585C945.138 213.742 944.925 212.75 944.925 211.609C944.925 210.487 945.138 209.502 945.564 208.655C945.995 207.803 946.596 207.14 947.368 206.666C948.14 206.188 949.046 205.949 950.088 205.949C950.76 205.949 951.395 206.058 951.991 206.276C952.593 206.489 953.123 206.82 953.582 207.27C954.046 207.72 954.411 208.293 954.676 208.989C954.941 209.68 955.074 210.504 955.074 211.46V212.249H946.132V210.516H952.609C952.604 210.023 952.498 209.585 952.29 209.202C952.081 208.813 951.79 208.508 951.416 208.286C951.047 208.063 950.616 207.952 950.123 207.952C949.598 207.952 949.136 208.08 948.738 208.335C948.341 208.586 948.031 208.918 947.808 209.33C947.59 209.737 947.479 210.184 947.474 210.672V212.185C947.474 212.819 947.59 213.364 947.822 213.818C948.054 214.268 948.379 214.614 948.795 214.855C949.212 215.092 949.7 215.21 950.258 215.21C950.632 215.21 950.971 215.158 951.274 215.054C951.577 214.945 951.84 214.786 952.062 214.578C952.285 214.37 952.453 214.112 952.567 213.804L954.967 214.074C954.816 214.708 954.527 215.262 954.101 215.736C953.679 216.205 953.14 216.569 952.481 216.83C951.823 217.085 951.07 217.213 950.223 217.213ZM957.249 221.091V206.091H959.777V207.895H959.926C960.059 207.63 960.246 207.348 960.487 207.05C960.729 206.747 961.056 206.489 961.468 206.276C961.879 206.058 962.405 205.949 963.044 205.949C963.887 205.949 964.647 206.164 965.324 206.595C966.006 207.021 966.546 207.653 966.943 208.491C967.346 209.325 967.547 210.348 967.547 211.56C967.547 212.758 967.351 213.776 966.958 214.614C966.565 215.452 966.03 216.091 965.352 216.531C964.675 216.972 963.908 217.192 963.051 217.192C962.426 217.192 961.908 217.088 961.496 216.879C961.084 216.671 960.753 216.42 960.502 216.126C960.255 215.828 960.064 215.546 959.926 215.281H959.82V221.091H957.249ZM959.77 211.545C959.77 212.251 959.869 212.869 960.068 213.399C960.272 213.929 960.563 214.344 960.942 214.642C961.325 214.936 961.789 215.082 962.334 215.082C962.902 215.082 963.378 214.931 963.762 214.628C964.145 214.32 964.434 213.901 964.628 213.371C964.827 212.836 964.926 212.227 964.926 211.545C964.926 210.868 964.829 210.267 964.635 209.741C964.441 209.216 964.152 208.804 963.769 208.506C963.385 208.207 962.907 208.058 962.334 208.058C961.785 208.058 961.318 208.203 960.935 208.491C960.551 208.78 960.26 209.185 960.061 209.706C959.867 210.227 959.77 210.84 959.77 211.545ZM974.578 217.213C973.485 217.213 972.54 216.986 971.744 216.531C970.954 216.072 970.345 215.423 969.919 214.585C969.493 213.742 969.28 212.75 969.28 211.609C969.28 210.487 969.493 209.502 969.919 208.655C970.35 207.803 970.951 207.14 971.723 206.666C972.495 206.188 973.402 205.949 974.443 205.949C975.116 205.949 975.75 206.058 976.347 206.276C976.948 206.489 977.478 206.82 977.938 207.27C978.402 207.72 978.766 208.293 979.031 208.989C979.297 209.68 979.429 210.504 979.429 211.46V212.249H970.487V210.516H976.965C976.96 210.023 976.853 209.585 976.645 209.202C976.437 208.813 976.146 208.508 975.771 208.286C975.402 208.063 974.971 207.952 974.479 207.952C973.953 207.952 973.492 208.08 973.094 208.335C972.696 208.586 972.386 208.918 972.164 209.33C971.946 209.737 971.834 210.184 971.83 210.672V212.185C971.83 212.819 971.946 213.364 972.178 213.818C972.41 214.268 972.734 214.614 973.151 214.855C973.567 215.092 974.055 215.21 974.614 215.21C974.988 215.21 975.326 215.158 975.629 215.054C975.932 214.945 976.195 214.786 976.418 214.578C976.64 214.37 976.808 214.112 976.922 213.804L979.323 214.074C979.171 214.708 978.882 215.262 978.456 215.736C978.035 216.205 977.495 216.569 976.837 216.83C976.179 217.085 975.426 217.213 974.578 217.213ZM981.001 214.01H983.55C983.574 214.417 983.756 214.732 984.097 214.955C984.438 215.177 984.881 215.288 985.425 215.288C985.979 215.288 986.446 215.168 986.824 214.926C987.208 214.68 987.4 214.308 987.4 213.811C987.4 213.518 987.326 213.259 987.18 213.037C987.033 212.81 986.827 212.634 986.562 212.511C986.296 212.388 985.984 212.327 985.624 212.327H983.955V210.501H985.624C986.159 210.501 986.564 210.378 986.839 210.132C987.118 209.886 987.258 209.576 987.258 209.202C987.258 208.799 987.111 208.473 986.817 208.222C986.528 207.971 986.128 207.845 985.617 207.845C985.106 207.845 984.68 207.961 984.339 208.193C984.002 208.425 983.827 208.723 983.813 209.088H981.278C981.287 208.454 981.476 207.902 981.846 207.433C982.22 206.964 982.722 206.6 983.351 206.339C983.986 206.079 984.701 205.949 985.496 205.949C986.349 205.949 987.085 206.077 987.705 206.332C988.325 206.588 988.804 206.946 989.14 207.405C989.476 207.859 989.644 208.394 989.644 209.01C989.644 209.602 989.459 210.092 989.09 210.48C988.721 210.864 988.224 211.138 987.599 211.304V211.418C988.029 211.441 988.418 211.564 988.763 211.787C989.109 212.005 989.384 212.301 989.587 212.675C989.791 213.049 989.893 213.482 989.893 213.974C989.893 214.642 989.701 215.22 989.317 215.707C988.934 216.19 988.406 216.562 987.733 216.822C987.066 217.083 986.301 217.213 985.439 217.213C984.601 217.213 983.851 217.088 983.188 216.837C982.53 216.581 982.007 216.214 981.618 215.736C981.23 215.258 981.024 214.682 981.001 214.01ZM868.683 226.455V241H866.048V229.018H865.963L862.561 231.192V228.777L866.176 226.455H868.683ZM877.753 241.277C876.584 241.277 875.58 240.981 874.742 240.389C873.908 239.793 873.267 238.933 872.817 237.811C872.372 236.684 872.149 235.328 872.149 233.741C872.154 232.155 872.379 230.806 872.824 229.693C873.274 228.576 873.915 227.723 874.749 227.136C875.587 226.549 876.588 226.256 877.753 226.256C878.918 226.256 879.919 226.549 880.757 227.136C881.595 227.723 882.237 228.576 882.682 229.693C883.132 230.811 883.357 232.16 883.357 233.741C883.357 235.332 883.132 236.691 882.682 237.818C882.237 238.94 881.595 239.797 880.757 240.389C879.924 240.981 878.923 241.277 877.753 241.277ZM877.753 239.054C878.662 239.054 879.379 238.607 879.905 237.712C880.435 236.812 880.7 235.489 880.7 233.741C880.7 232.586 880.58 231.616 880.338 230.83C880.097 230.044 879.756 229.452 879.316 229.054C878.875 228.652 878.354 228.45 877.753 228.45C876.849 228.45 876.134 228.9 875.608 229.8C875.083 230.695 874.817 232.009 874.813 233.741C874.808 234.902 874.924 235.877 875.161 236.668C875.402 237.458 875.743 238.055 876.183 238.457C876.624 238.855 877.147 239.054 877.753 239.054ZM896.984 238.01L900.223 230.091H902.297L897.886 241H896.089L891.778 230.091H893.831L896.984 238.01ZM893.184 230.091V241H890.706V230.091H893.184ZM900.89 241V230.091H903.348V241H900.89ZM908.419 237.52L912.787 230.091H915.429V241H912.943V233.564L908.589 241H905.94V230.091H908.419V237.52ZM925.562 234.48V236.589H919.752V234.48H925.562ZM920.548 230.091V241H918.069V230.091H920.548ZM927.245 230.091V241H924.774V230.091H927.245Z" fill="black"/>
<path d="M1100.92 217.199C1099.89 217.199 1098.99 217.024 1098.19 216.673C1097.4 216.323 1096.77 215.835 1096.31 215.21C1095.86 214.585 1095.61 213.863 1095.58 213.044H1098.25C1098.28 213.437 1098.41 213.78 1098.64 214.074C1098.88 214.363 1099.2 214.588 1099.59 214.749C1099.98 214.91 1100.42 214.99 1100.91 214.99C1101.43 214.99 1101.89 214.9 1102.29 214.72C1102.7 214.536 1103.01 214.28 1103.24 213.953C1103.47 213.626 1103.58 213.25 1103.57 212.824C1103.58 212.384 1103.46 211.995 1103.23 211.659C1103 211.323 1102.66 211.06 1102.22 210.871C1101.79 210.681 1101.26 210.587 1100.65 210.587H1099.36V208.555H1100.65C1101.15 208.555 1101.6 208.468 1101.98 208.293C1102.36 208.117 1102.66 207.871 1102.88 207.554C1103.1 207.232 1103.2 206.86 1103.2 206.439C1103.2 206.027 1103.11 205.67 1102.92 205.366C1102.74 205.059 1102.47 204.82 1102.13 204.649C1101.8 204.479 1101.4 204.393 1100.95 204.393C1100.5 204.393 1100.09 204.474 1099.71 204.635C1099.33 204.796 1099.03 205.026 1098.79 205.324C1098.56 205.617 1098.44 205.968 1098.42 206.375H1095.89C1095.91 205.561 1096.14 204.846 1096.59 204.23C1097.05 203.61 1097.65 203.127 1098.41 202.781C1099.17 202.431 1100.02 202.256 1100.96 202.256C1101.93 202.256 1102.77 202.438 1103.49 202.803C1104.21 203.162 1104.76 203.648 1105.16 204.259C1105.55 204.869 1105.75 205.544 1105.75 206.283C1105.75 207.102 1105.51 207.788 1105.02 208.342C1104.54 208.896 1103.9 209.259 1103.12 209.429V209.543C1104.14 209.685 1104.93 210.063 1105.47 210.679C1106.02 211.29 1106.29 212.05 1106.29 212.959C1106.29 213.773 1106.05 214.502 1105.59 215.146C1105.13 215.786 1104.5 216.287 1103.69 216.652C1102.88 217.017 1101.96 217.199 1100.92 217.199ZM1111.89 217.22C1111.2 217.22 1110.58 217.097 1110.02 216.851C1109.47 216.6 1109.04 216.231 1108.72 215.743C1108.4 215.255 1108.24 214.654 1108.24 213.939C1108.24 213.323 1108.35 212.814 1108.58 212.412C1108.81 212.009 1109.12 211.688 1109.51 211.446C1109.91 211.205 1110.35 211.022 1110.84 210.899C1111.34 210.771 1111.85 210.679 1112.38 210.622C1113.02 210.556 1113.54 210.497 1113.94 210.445C1114.34 210.388 1114.62 210.303 1114.8 210.189C1114.99 210.071 1115.08 209.888 1115.08 209.642V209.599C1115.08 209.064 1114.92 208.65 1114.6 208.357C1114.29 208.063 1113.83 207.916 1113.23 207.916C1112.6 207.916 1112.1 208.054 1111.74 208.328C1111.37 208.603 1111.12 208.927 1111 209.301L1108.6 208.96C1108.79 208.297 1109.1 207.743 1109.53 207.298C1109.97 206.848 1110.5 206.512 1111.13 206.29C1111.76 206.062 1112.46 205.949 1113.22 205.949C1113.75 205.949 1114.27 206.01 1114.79 206.134C1115.31 206.257 1115.79 206.46 1116.22 206.744C1116.65 207.024 1116.99 207.405 1117.25 207.888C1117.52 208.371 1117.65 208.974 1117.65 209.699V217H1115.18V215.501H1115.09C1114.94 215.804 1114.72 216.089 1114.43 216.354C1114.16 216.614 1113.8 216.825 1113.38 216.986C1112.95 217.142 1112.46 217.22 1111.89 217.22ZM1112.56 215.331C1113.08 215.331 1113.52 215.229 1113.9 215.026C1114.28 214.817 1114.57 214.543 1114.78 214.202C1114.98 213.861 1115.09 213.489 1115.09 213.087V211.801C1115.01 211.867 1114.87 211.929 1114.68 211.986C1114.49 212.043 1114.27 212.092 1114.04 212.135C1113.8 212.178 1113.57 212.215 1113.33 212.249C1113.1 212.282 1112.9 212.31 1112.73 212.334C1112.35 212.386 1112 212.471 1111.7 212.589C1111.4 212.708 1111.16 212.874 1110.98 213.087C1110.81 213.295 1110.72 213.565 1110.72 213.896C1110.72 214.37 1110.89 214.727 1111.24 214.969C1111.58 215.21 1112.02 215.331 1112.56 215.331ZM1129.35 206.091V217H1126.88V206.091H1129.35ZM1128.19 211.02V213.122C1127.91 213.245 1127.59 213.357 1127.24 213.456C1126.89 213.551 1126.52 213.626 1126.12 213.683C1125.74 213.74 1125.35 213.768 1124.96 213.768C1123.5 213.768 1122.35 213.442 1121.5 212.788C1120.66 212.13 1120.24 211.105 1120.24 209.713V206.077H1122.69V209.713C1122.69 210.182 1122.78 210.558 1122.94 210.842C1123.11 211.126 1123.36 211.335 1123.7 211.467C1124.03 211.595 1124.45 211.659 1124.96 211.659C1125.53 211.659 1126.07 211.602 1126.58 211.489C1127.09 211.375 1127.63 211.219 1128.19 211.02ZM1134.41 213.52L1138.78 206.091H1141.42V217H1138.94V209.564L1134.59 217H1131.94V206.091H1134.41V213.52ZM1148.82 217.213C1147.73 217.213 1146.8 216.974 1146.02 216.496C1145.24 216.018 1144.64 215.357 1144.22 214.514C1143.8 213.667 1143.6 212.691 1143.6 211.588C1143.6 210.48 1143.81 209.502 1144.24 208.655C1144.66 207.803 1145.26 207.14 1146.04 206.666C1146.82 206.188 1147.74 205.949 1148.81 205.949C1149.69 205.949 1150.48 206.112 1151.16 206.439C1151.85 206.761 1152.39 207.218 1152.8 207.81C1153.21 208.397 1153.44 209.083 1153.5 209.869H1151.04C1150.94 209.344 1150.7 208.906 1150.33 208.555C1149.96 208.2 1149.47 208.023 1148.84 208.023C1148.32 208.023 1147.86 208.165 1147.46 208.449C1147.06 208.728 1146.75 209.131 1146.53 209.656C1146.31 210.182 1146.2 210.812 1146.2 211.545C1146.2 212.289 1146.31 212.928 1146.53 213.463C1146.75 213.993 1147.05 214.403 1147.45 214.692C1147.84 214.976 1148.31 215.118 1148.84 215.118C1149.22 215.118 1149.56 215.047 1149.86 214.905C1150.16 214.758 1150.42 214.547 1150.62 214.273C1150.82 213.998 1150.96 213.664 1151.04 213.271H1153.5C1153.44 214.043 1153.21 214.727 1152.82 215.324C1152.42 215.916 1151.89 216.38 1151.21 216.716C1150.53 217.047 1149.74 217.213 1148.82 217.213ZM1154.86 217L1154.84 214.884H1155.22C1155.5 214.884 1155.74 214.82 1155.93 214.692C1156.13 214.564 1156.29 214.351 1156.42 214.053C1156.55 213.75 1156.65 213.342 1156.72 212.831C1156.79 212.32 1156.84 211.683 1156.87 210.92L1157.06 206.091H1165.01V217H1162.53V208.2H1159.39L1159.22 211.716C1159.18 212.625 1159.08 213.413 1158.92 214.081C1158.76 214.744 1158.54 215.291 1158.25 215.722C1157.97 216.152 1157.61 216.474 1157.18 216.688C1156.75 216.896 1156.24 217 1155.65 217H1154.86ZM1172.43 217.213C1171.34 217.213 1170.39 216.986 1169.6 216.531C1168.81 216.072 1168.2 215.423 1167.77 214.585C1167.34 213.742 1167.13 212.75 1167.13 211.609C1167.13 210.487 1167.34 209.502 1167.77 208.655C1168.2 207.803 1168.8 207.14 1169.57 206.666C1170.35 206.188 1171.25 205.949 1172.29 205.949C1172.97 205.949 1173.6 206.058 1174.2 206.276C1174.8 206.489 1175.33 206.82 1175.79 207.27C1176.25 207.72 1176.62 208.293 1176.88 208.989C1177.15 209.68 1177.28 210.504 1177.28 211.46V212.249H1168.34V210.516H1174.82C1174.81 210.023 1174.7 209.585 1174.5 209.202C1174.29 208.813 1174 208.508 1173.62 208.286C1173.25 208.063 1172.82 207.952 1172.33 207.952C1171.8 207.952 1171.34 208.08 1170.95 208.335C1170.55 208.586 1170.24 208.918 1170.02 209.33C1169.8 209.737 1169.69 210.184 1169.68 210.672V212.185C1169.68 212.819 1169.8 213.364 1170.03 213.818C1170.26 214.268 1170.59 214.614 1171 214.855C1171.42 215.092 1171.91 215.21 1172.47 215.21C1172.84 215.21 1173.18 215.158 1173.48 215.054C1173.78 214.945 1174.05 214.786 1174.27 214.578C1174.49 214.37 1174.66 214.112 1174.77 213.804L1177.17 214.074C1177.02 214.708 1176.73 215.262 1176.31 215.736C1175.89 216.205 1175.35 216.569 1174.69 216.83C1174.03 217.085 1173.28 217.213 1172.43 217.213ZM1186.95 210.48V212.589H1181.14V210.48H1186.95ZM1181.93 206.091V217H1179.46V206.091H1181.93ZM1188.63 206.091V217H1186.16V206.091H1188.63ZM1193.71 213.52L1198.08 206.091H1200.72V217H1198.24V209.564L1193.88 217H1191.23V206.091H1193.71V213.52ZM1208.19 217.213C1207.1 217.213 1206.15 216.986 1205.36 216.531C1204.57 216.072 1203.96 215.423 1203.53 214.585C1203.11 213.742 1202.89 212.75 1202.89 211.609C1202.89 210.487 1203.11 209.502 1203.53 208.655C1203.96 207.803 1204.56 207.14 1205.34 206.666C1206.11 206.188 1207.01 205.949 1208.06 205.949C1208.73 205.949 1209.36 206.058 1209.96 206.276C1210.56 206.489 1211.09 206.82 1211.55 207.27C1212.01 207.72 1212.38 208.293 1212.64 208.989C1212.91 209.68 1213.04 210.504 1213.04 211.46V212.249H1204.1V210.516H1210.58C1210.57 210.023 1210.47 209.585 1210.26 209.202C1210.05 208.813 1209.76 208.508 1209.38 208.286C1209.02 208.063 1208.58 207.952 1208.09 207.952C1207.57 207.952 1207.1 208.08 1206.71 208.335C1206.31 208.586 1206 208.918 1205.78 209.33C1205.56 209.737 1205.45 210.184 1205.44 210.672V212.185C1205.44 212.819 1205.56 213.364 1205.79 213.818C1206.02 214.268 1206.35 214.614 1206.76 214.855C1207.18 215.092 1207.67 215.21 1208.23 215.21C1208.6 215.21 1208.94 215.158 1209.24 215.054C1209.55 214.945 1209.81 214.786 1210.03 214.578C1210.25 214.37 1210.42 214.112 1210.54 213.804L1212.94 214.074C1212.78 214.708 1212.5 215.262 1212.07 215.736C1211.65 216.205 1211.11 216.569 1210.45 216.83C1209.79 217.085 1209.04 217.213 1208.19 217.213ZM1219.43 217L1219.41 214.884H1219.79C1220.07 214.884 1220.31 214.82 1220.51 214.692C1220.7 214.564 1220.86 214.351 1220.99 214.053C1221.12 213.75 1221.22 213.342 1221.29 212.831C1221.36 212.32 1221.41 211.683 1221.44 210.92L1221.63 206.091H1229.58V217H1227.1V208.2H1223.96L1223.79 211.716C1223.75 212.625 1223.65 213.413 1223.49 214.081C1223.33 214.744 1223.11 215.291 1222.82 215.722C1222.54 216.152 1222.18 216.474 1221.75 216.688C1221.32 216.896 1220.81 217 1220.22 217H1219.43ZM1237.93 210.558V212.675H1232.06V210.558H1237.93ZM1234.1 206.091V217H1231.52V206.091H1234.1ZM1241.23 217.213C1240.17 217.213 1239.26 216.974 1238.49 216.496C1237.72 216.018 1237.13 215.355 1236.71 214.507C1236.29 213.66 1236.08 212.679 1236.08 211.567C1236.08 210.454 1236.29 209.476 1236.71 208.634C1237.13 207.791 1237.72 207.133 1238.49 206.659C1239.26 206.186 1240.17 205.949 1241.23 205.949C1242.27 205.949 1243.18 206.186 1243.95 206.659C1244.72 207.133 1245.31 207.791 1245.74 208.634C1246.16 209.476 1246.38 210.454 1246.38 211.567C1246.38 212.679 1246.16 213.66 1245.74 214.507C1245.31 215.355 1244.72 216.018 1243.95 216.496C1243.18 216.974 1242.27 217.213 1241.23 217.213ZM1241.23 215.082C1241.85 215.082 1242.35 214.926 1242.75 214.614C1243.14 214.301 1243.43 213.88 1243.61 213.349C1243.8 212.819 1243.89 212.225 1243.89 211.567C1243.89 210.909 1243.8 210.314 1243.61 209.784C1243.43 209.254 1243.14 208.835 1242.75 208.527C1242.35 208.214 1241.85 208.058 1241.23 208.058C1240.6 208.058 1240.09 208.214 1239.69 208.527C1239.3 208.835 1239.01 209.254 1238.83 209.784C1238.64 210.314 1238.55 210.909 1238.55 211.567C1238.55 212.23 1238.64 212.826 1238.83 213.357C1239.01 213.887 1239.3 214.308 1239.69 214.621C1240.09 214.929 1240.6 215.082 1241.23 215.082ZM1257.4 202.057L1258.29 203.719C1257.98 203.993 1257.62 204.192 1257.23 204.315C1256.83 204.438 1256.37 204.519 1255.84 204.557C1255.32 204.59 1254.69 204.614 1253.97 204.628C1253.15 204.647 1252.49 204.801 1251.97 205.089C1251.46 205.378 1251.06 205.816 1250.79 206.403C1250.51 206.986 1250.33 207.729 1250.25 208.634H1250.37C1250.71 207.966 1251.19 207.457 1251.8 207.107C1252.42 206.756 1253.14 206.581 1253.97 206.581C1254.87 206.581 1255.67 206.785 1256.36 207.192C1257.06 207.594 1257.6 208.179 1257.99 208.946C1258.38 209.713 1258.58 210.641 1258.58 211.73C1258.58 212.852 1258.37 213.825 1257.94 214.649C1257.52 215.468 1256.92 216.1 1256.15 216.545C1255.38 216.991 1254.46 217.213 1253.4 217.213C1252.34 217.213 1251.42 216.983 1250.64 216.524C1249.87 216.06 1249.27 215.376 1248.84 214.472C1248.42 213.562 1248.21 212.443 1248.21 211.112V210.132C1248.21 207.566 1248.69 205.651 1249.64 204.386C1250.6 203.122 1252.02 202.478 1253.9 202.455C1254.46 202.445 1254.95 202.443 1255.4 202.447C1255.84 202.452 1256.23 202.431 1256.56 202.384C1256.89 202.336 1257.17 202.227 1257.4 202.057ZM1253.41 215.153C1253.94 215.153 1254.39 215.018 1254.78 214.749C1255.16 214.474 1255.45 214.086 1255.66 213.584C1255.87 213.082 1255.97 212.488 1255.97 211.801C1255.97 211.124 1255.87 210.549 1255.66 210.075C1255.45 209.597 1255.15 209.232 1254.77 208.982C1254.39 208.731 1253.93 208.605 1253.4 208.605C1253 208.605 1252.64 208.676 1252.33 208.818C1252.01 208.96 1251.74 209.169 1251.52 209.443C1251.29 209.718 1251.12 210.052 1251.01 210.445C1250.89 210.838 1250.82 211.29 1250.81 211.801C1250.81 212.829 1251.05 213.645 1251.51 214.251C1251.97 214.853 1252.61 215.153 1253.41 215.153ZM1262.5 209.642H1265.72C1267.11 209.642 1268.19 209.981 1268.95 210.658C1269.72 211.335 1270.1 212.223 1270.1 213.321C1270.1 214.036 1269.92 214.67 1269.58 215.224C1269.24 215.778 1268.74 216.214 1268.09 216.531C1267.44 216.844 1266.65 217 1265.72 217H1260.76V206.091H1263.24V214.891H1265.72C1266.28 214.891 1266.74 214.749 1267.1 214.464C1267.46 214.176 1267.64 213.806 1267.64 213.357C1267.64 212.883 1267.46 212.497 1267.1 212.199C1266.74 211.901 1266.28 211.751 1265.72 211.751H1262.5V209.642ZM1271.46 217V206.091H1274.03V217H1271.46ZM1282.96 214.01L1286.2 206.091H1288.27L1283.86 217H1282.07L1277.75 206.091H1279.81L1282.96 214.01ZM1279.16 206.091V217H1276.68V206.091H1279.16ZM1286.87 217V206.091H1289.32V217H1286.87ZM1149.19 241.213C1148.1 241.213 1147.16 240.974 1146.38 240.496C1145.6 240.018 1145 239.357 1144.58 238.514C1144.17 237.667 1143.96 236.691 1143.96 235.588C1143.96 234.48 1144.17 233.502 1144.6 232.655C1145.02 231.803 1145.62 231.14 1146.4 230.666C1147.18 230.188 1148.11 229.949 1149.17 229.949C1150.06 229.949 1150.84 230.112 1151.52 230.439C1152.21 230.761 1152.76 231.218 1153.16 231.81C1153.57 232.397 1153.8 233.083 1153.86 233.869H1151.4C1151.3 233.344 1151.06 232.906 1150.69 232.555C1150.32 232.2 1149.83 232.023 1149.21 232.023C1148.68 232.023 1148.22 232.165 1147.82 232.449C1147.42 232.728 1147.11 233.131 1146.89 233.656C1146.67 234.182 1146.56 234.812 1146.56 235.545C1146.56 236.289 1146.67 236.928 1146.89 237.463C1147.11 237.993 1147.41 238.403 1147.81 238.692C1148.2 238.976 1148.67 239.118 1149.21 239.118C1149.59 239.118 1149.92 239.047 1150.22 238.905C1150.52 238.758 1150.78 238.547 1150.98 238.273C1151.19 237.998 1151.33 237.664 1151.4 237.271H1153.86C1153.8 238.043 1153.57 238.727 1153.18 239.324C1152.78 239.916 1152.25 240.38 1151.57 240.716C1150.89 241.047 1150.1 241.213 1149.19 241.213ZM1155.97 241V230.091H1165.18V241H1162.7V232.2H1158.43V241H1155.97ZM1172.58 241.213C1171.52 241.213 1170.59 240.979 1169.81 240.51C1169.03 240.041 1168.43 239.385 1168 238.543C1167.57 237.7 1167.36 236.715 1167.36 235.588C1167.36 234.461 1167.57 233.474 1168 232.626C1168.43 231.779 1169.03 231.121 1169.81 230.652C1170.59 230.183 1171.52 229.949 1172.58 229.949C1173.65 229.949 1174.57 230.183 1175.35 230.652C1176.13 231.121 1176.74 231.779 1177.16 232.626C1177.6 233.474 1177.81 234.461 1177.81 235.588C1177.81 236.715 1177.6 237.7 1177.16 238.543C1176.74 239.385 1176.13 240.041 1175.35 240.51C1174.57 240.979 1173.65 241.213 1172.58 241.213ZM1172.6 239.153C1173.18 239.153 1173.66 238.995 1174.05 238.678C1174.43 238.356 1174.72 237.925 1174.91 237.385C1175.11 236.845 1175.2 236.244 1175.2 235.581C1175.2 234.913 1175.11 234.31 1174.91 233.77C1174.72 233.225 1174.43 232.792 1174.05 232.47C1173.66 232.148 1173.18 231.987 1172.6 231.987C1172.01 231.987 1171.51 232.148 1171.12 232.47C1170.73 232.792 1170.44 233.225 1170.25 233.77C1170.06 234.31 1169.96 234.913 1169.96 235.581C1169.96 236.244 1170.06 236.845 1170.25 237.385C1170.44 237.925 1170.73 238.356 1171.12 238.678C1171.51 238.995 1172.01 239.153 1172.6 239.153ZM1184.75 241.213C1183.66 241.213 1182.73 240.974 1181.95 240.496C1181.17 240.018 1180.57 239.357 1180.15 238.514C1179.73 237.667 1179.52 236.691 1179.52 235.588C1179.52 234.48 1179.74 233.502 1180.16 232.655C1180.59 231.803 1181.19 231.14 1181.97 230.666C1182.75 230.188 1183.67 229.949 1184.74 229.949C1185.62 229.949 1186.41 230.112 1187.09 230.439C1187.77 230.761 1188.32 231.218 1188.73 231.81C1189.14 232.397 1189.37 233.083 1189.42 233.869H1186.97C1186.87 233.344 1186.63 232.906 1186.26 232.555C1185.89 232.2 1185.39 232.023 1184.77 232.023C1184.25 232.023 1183.79 232.165 1183.39 232.449C1182.99 232.728 1182.68 233.131 1182.46 233.656C1182.24 234.182 1182.13 234.812 1182.13 235.545C1182.13 236.289 1182.24 236.928 1182.46 237.463C1182.68 237.993 1182.98 238.403 1183.37 238.692C1183.77 238.976 1184.24 239.118 1184.77 239.118C1185.15 239.118 1185.49 239.047 1185.79 238.905C1186.09 238.758 1186.34 238.547 1186.55 238.273C1186.75 237.998 1186.89 237.664 1186.97 237.271H1189.42C1189.36 238.043 1189.14 238.727 1188.74 239.324C1188.35 239.916 1187.81 240.38 1187.14 240.716C1186.46 241.047 1185.67 241.213 1184.75 241.213ZM1196.29 241.213C1195.23 241.213 1194.31 240.979 1193.52 240.51C1192.74 240.041 1192.14 239.385 1191.71 238.543C1191.28 237.7 1191.07 236.715 1191.07 235.588C1191.07 234.461 1191.28 233.474 1191.71 232.626C1192.14 231.779 1192.74 231.121 1193.52 230.652C1194.31 230.183 1195.23 229.949 1196.29 229.949C1197.36 229.949 1198.28 230.183 1199.06 230.652C1199.85 231.121 1200.45 231.779 1200.88 232.626C1201.31 233.474 1201.52 234.461 1201.52 235.588C1201.52 236.715 1201.31 237.7 1200.88 238.543C1200.45 239.385 1199.85 240.041 1199.06 240.51C1198.28 240.979 1197.36 241.213 1196.29 241.213ZM1196.31 239.153C1196.89 239.153 1197.37 238.995 1197.76 238.678C1198.15 238.356 1198.43 237.925 1198.62 237.385C1198.82 236.845 1198.92 236.244 1198.92 235.581C1198.92 234.913 1198.82 234.31 1198.62 233.77C1198.43 233.225 1198.15 232.792 1197.76 232.47C1197.37 232.148 1196.89 231.987 1196.31 231.987C1195.72 231.987 1195.22 232.148 1194.83 232.47C1194.44 232.792 1194.15 233.225 1193.96 233.77C1193.77 234.31 1193.67 234.913 1193.67 235.581C1193.67 236.244 1193.77 236.845 1193.96 237.385C1194.15 237.925 1194.44 238.356 1194.83 238.678C1195.22 238.995 1195.72 239.153 1196.31 239.153ZM1212.45 226.057L1213.34 227.719C1213.02 227.993 1212.67 228.192 1212.28 228.315C1211.88 228.438 1211.42 228.519 1210.89 228.557C1210.37 228.59 1209.74 228.614 1209.02 228.628C1208.2 228.647 1207.54 228.801 1207.02 229.089C1206.5 229.378 1206.11 229.816 1205.83 230.403C1205.56 230.986 1205.38 231.729 1205.29 232.634H1205.42C1205.76 231.966 1206.23 231.457 1206.85 231.107C1207.47 230.756 1208.19 230.581 1209.02 230.581C1209.92 230.581 1210.72 230.785 1211.41 231.192C1212.11 231.594 1212.65 232.179 1213.04 232.946C1213.43 233.713 1213.63 234.641 1213.63 235.73C1213.63 236.852 1213.42 237.825 1212.99 238.649C1212.57 239.468 1211.97 240.1 1211.2 240.545C1210.42 240.991 1209.51 241.213 1208.45 241.213C1207.39 241.213 1206.47 240.983 1205.69 240.524C1204.92 240.06 1204.31 239.376 1203.89 238.472C1203.47 237.562 1203.26 236.443 1203.26 235.112V234.132C1203.26 231.566 1203.73 229.651 1204.69 228.386C1205.65 227.122 1207.07 226.478 1208.95 226.455C1209.5 226.445 1210 226.443 1210.44 226.447C1210.89 226.452 1211.28 226.431 1211.61 226.384C1211.94 226.336 1212.22 226.227 1212.45 226.057ZM1208.46 239.153C1208.99 239.153 1209.44 239.018 1209.83 238.749C1210.21 238.474 1210.5 238.086 1210.71 237.584C1210.92 237.082 1211.02 236.488 1211.02 235.801C1211.02 235.124 1210.92 234.549 1210.71 234.075C1210.5 233.597 1210.2 233.232 1209.82 232.982C1209.44 232.731 1208.98 232.605 1208.45 232.605C1208.05 232.605 1207.69 232.676 1207.38 232.818C1207.06 232.96 1206.79 233.169 1206.57 233.443C1206.34 233.718 1206.17 234.052 1206.05 234.445C1205.94 234.838 1205.87 235.29 1205.86 235.801C1205.86 236.829 1206.09 237.645 1206.56 238.251C1207.02 238.853 1207.66 239.153 1208.46 239.153ZM1220.57 241.213C1219.51 241.213 1218.58 240.979 1217.8 240.51C1217.02 240.041 1216.41 239.385 1215.98 238.543C1215.56 237.7 1215.34 236.715 1215.34 235.588C1215.34 234.461 1215.56 233.474 1215.98 232.626C1216.41 231.779 1217.02 231.121 1217.8 230.652C1218.58 230.183 1219.51 229.949 1220.57 229.949C1221.64 229.949 1222.56 230.183 1223.34 230.652C1224.12 231.121 1224.73 231.779 1225.15 232.626C1225.58 233.474 1225.8 234.461 1225.8 235.588C1225.8 236.715 1225.58 237.7 1225.15 238.543C1224.73 239.385 1224.12 240.041 1223.34 240.51C1222.56 240.979 1221.64 241.213 1220.57 241.213ZM1220.59 239.153C1221.16 239.153 1221.65 238.995 1222.03 238.678C1222.42 238.356 1222.71 237.925 1222.9 237.385C1223.1 236.845 1223.19 236.244 1223.19 235.581C1223.19 234.913 1223.1 234.31 1222.9 233.77C1222.71 233.225 1222.42 232.792 1222.03 232.47C1221.65 232.148 1221.16 231.987 1220.59 231.987C1219.99 231.987 1219.5 232.148 1219.11 232.47C1218.72 232.792 1218.43 233.225 1218.24 233.77C1218.05 234.31 1217.95 234.913 1217.95 235.581C1217.95 236.244 1218.05 236.845 1218.24 237.385C1218.43 237.925 1218.72 238.356 1219.11 238.678C1219.5 238.995 1219.99 239.153 1220.59 239.153ZM1234.26 238.01L1237.5 230.091H1239.57L1235.16 241H1233.36L1229.05 230.091H1231.11L1234.26 238.01ZM1230.46 230.091V241H1227.98V230.091H1230.46ZM1238.17 241V230.091H1240.62V241H1238.17Z" fill="black"/>
<g clip-path="url(#clip0_2121_15)">
<path d="M925.146 90.9825C917.759 83.5955 907.624 79.043 896.457 79.043C885.291 79.043 875.155 83.5955 867.854 90.8966C860.552 98.1978 856 108.334 856 119.5C856 130.409 860.295 140.287 867.338 147.588C874.382 154.889 884.088 159.528 894.997 159.957C895.856 159.957 896.629 159.27 896.629 158.411C896.629 157.552 895.942 156.779 895.083 156.779C885.119 156.435 876.1 152.141 869.657 145.441C863.215 138.655 859.264 129.55 859.264 119.5C859.264 109.192 863.473 99.9157 870.173 93.1299C876.873 86.43 886.15 82.307 896.457 82.307C906.765 82.307 916.041 86.5159 922.741 93.2158C929.441 99.9157 933.65 109.278 933.65 119.586C933.65 122.85 933.221 126.028 932.448 129.12C931.674 132.127 930.472 135.133 928.84 137.882C928.41 138.655 928.668 139.6 929.441 140.115C930.214 140.545 931.159 140.287 931.674 139.514C933.392 136.507 934.681 133.243 935.626 129.893C936.485 126.543 937 123.022 937 119.586C937 108.419 932.448 98.2837 925.146 90.9825Z" fill="#00A02B"/>
<path d="M896.371 87.8903C887.696 87.8903 879.793 91.412 874.038 97.167C868.369 102.836 864.761 110.739 864.761 119.5C864.761 126.543 867.081 133.157 871.118 138.569C875.155 143.894 880.91 148.018 887.696 149.907C888.555 150.165 889.414 149.65 889.671 148.791C889.929 147.932 889.414 147.073 888.555 146.815C882.456 145.097 877.302 141.404 873.695 136.679C870.345 132.299 868.369 126.973 868.025 121.218H872.063C872.921 121.218 873.695 120.531 873.695 119.586C873.695 118.727 873.007 117.954 872.063 117.954H868.025C868.455 110.739 871.461 104.296 876.271 99.5721C881.082 94.7619 887.524 91.7556 894.653 91.3261V95.3632C894.653 96.2222 895.34 96.9952 896.285 96.9952C897.144 96.9952 897.917 96.3081 897.917 95.3632V91.3261C905.133 91.7556 911.575 94.7619 916.299 99.5721C921.109 104.382 924.116 110.825 924.545 117.954H920.508C919.649 117.954 918.876 118.641 918.876 119.586C918.876 120.445 919.563 121.218 920.508 121.218H924.545C924.459 122.077 924.459 122.936 924.287 123.795C924.116 125.169 923.772 126.543 923.342 127.918C923.085 128.777 923.6 129.636 924.373 129.893C925.49 130.151 926.349 129.636 926.607 128.777C927.036 127.231 927.465 125.685 927.637 124.224C927.895 122.678 927.981 121.132 927.981 119.5C927.981 110.825 924.459 102.922 918.704 97.167C913.035 91.4979 905.133 87.8903 896.371 87.8903Z" fill="#00A02B"/>
<path d="M896.457 99.9157C895.598 99.9157 894.825 100.603 894.825 101.548V114.69C894.138 114.948 893.451 115.291 892.935 115.806L892.849 115.892C892.334 116.408 891.905 117.095 891.647 117.868H881.769C880.91 117.868 880.137 118.555 880.137 119.5C880.137 120.359 880.824 121.132 881.769 121.132H891.561C891.819 121.905 892.248 122.592 892.764 123.108C893.708 124.053 894.997 124.568 896.371 124.568C897.746 124.568 899.034 123.967 899.979 123.108C900.924 122.163 901.439 120.874 901.439 119.5C901.439 118.126 900.838 116.837 899.979 115.892C899.463 115.377 898.776 114.948 898.003 114.69V101.548C898.089 100.689 897.316 99.9157 896.457 99.9157ZM898.347 119.5C898.347 120.015 898.089 120.531 897.746 120.874C897.402 121.218 896.972 121.39 896.457 121.39C895.942 121.39 895.426 121.218 895.169 120.874C894.825 120.531 894.653 120.101 894.653 119.586C894.653 119.071 894.825 118.641 895.169 118.297C895.169 118.297 895.169 118.297 895.255 118.212C895.598 117.868 896.028 117.696 896.543 117.696C897.058 117.696 897.574 117.868 897.831 118.212C898.175 118.555 898.347 118.985 898.347 119.5Z" fill="#00A02B"/>
<path d="M909.771 126.973C905.218 126.973 901.095 128.777 898.175 131.783C895.169 134.79 893.365 138.913 893.365 143.379C893.365 147.932 895.169 152.055 898.175 154.975C901.095 157.896 905.218 159.785 909.771 159.785C914.323 159.785 918.446 157.981 921.367 154.975C924.373 151.969 926.177 147.846 926.177 143.379C926.177 138.827 924.373 134.704 921.367 131.783C918.361 128.777 914.237 126.973 909.771 126.973ZM919.134 152.656C916.728 155.061 913.464 156.521 909.771 156.521C906.077 156.521 902.813 155.061 900.408 152.656C898.003 150.251 896.543 146.987 896.543 143.293C896.543 139.686 898.003 136.336 900.408 133.931C902.813 131.525 906.077 130.065 909.771 130.065C913.464 130.065 916.728 131.525 919.134 133.931C921.539 136.336 922.999 139.6 922.999 143.293C922.999 146.987 921.539 150.251 919.134 152.656Z" fill="#00A02B"/>
<path d="M906.011 149V137.364H910.602C911.485 137.364 912.237 137.532 912.858 137.869C913.479 138.203 913.953 138.667 914.278 139.261C914.608 139.852 914.773 140.534 914.773 141.307C914.773 142.08 914.606 142.761 914.273 143.352C913.939 143.943 913.456 144.403 912.824 144.733C912.195 145.062 911.434 145.227 910.54 145.227H907.614V143.256H910.142C910.616 143.256 911.006 143.174 911.312 143.011C911.623 142.845 911.854 142.616 912.006 142.324C912.161 142.028 912.239 141.689 912.239 141.307C912.239 140.92 912.161 140.583 912.006 140.295C911.854 140.004 911.623 139.778 911.312 139.619C911.002 139.456 910.608 139.375 910.131 139.375H908.472V149H906.011Z" fill="#00A02B"/>
</g>
<g clip-path="url(#clip1_2121_15)">
<path d="M1154.38 129.875H1172.25C1173.08 129.875 1173.62 129.325 1173.62 128.5C1173.62 127.675 1173.08 127.125 1172.25 127.125H1155.75V94.125H1214.88V114.75C1214.88 115.575 1215.42 116.125 1216.25 116.125H1219C1219.83 116.125 1220.38 115.575 1220.38 114.75C1220.38 113.925 1219.83 113.375 1219 113.375H1217.62V92.75C1217.62 91.925 1217.08 91.375 1216.25 91.375H1154.38C1153.55 91.375 1153 91.925 1153 92.75V128.5C1153 129.325 1153.55 129.875 1154.38 129.875Z" fill="#00A02B"/>
<path d="M1175 107.737C1175 113.1 1179.26 117.362 1184.62 117.362C1189.99 117.362 1194.25 113.1 1194.25 107.737C1194.25 102.375 1189.99 98.1125 1184.62 98.1125C1179.26 98.1125 1175 102.512 1175 107.737ZM1191.5 107.737C1191.5 111.587 1188.47 114.612 1184.62 114.612C1180.78 114.612 1177.75 111.587 1177.75 107.737C1177.75 103.887 1180.78 100.862 1184.62 100.862C1188.47 100.862 1191.5 104.025 1191.5 107.737Z" fill="#00A02B"/>
<path d="M1178.71 160.537L1174.59 156.412C1174.04 155.862 1173.21 155.862 1172.66 156.412C1172.11 156.962 1172.11 157.787 1172.66 158.337L1174.45 160.125H1168.95C1163.86 160.125 1159.88 156.137 1159.88 151.05V144.175L1161.66 145.962C1161.94 146.237 1162.21 146.375 1162.62 146.375C1163.04 146.375 1163.31 146.237 1163.59 145.962C1164.14 145.412 1164.14 144.587 1163.59 144.037L1159.46 139.912C1159.32 139.775 1159.19 139.637 1159.05 139.637C1158.78 139.5 1158.36 139.5 1157.95 139.637C1157.81 139.775 1157.67 139.775 1157.54 139.912L1153.41 144.037C1152.86 144.587 1152.86 145.412 1153.41 145.962C1153.96 146.512 1154.79 146.512 1155.34 145.962L1157.12 144.175V151.05C1157.12 157.512 1162.35 162.875 1168.95 162.875H1174.45L1172.66 164.662C1172.11 165.212 1172.11 166.037 1172.66 166.587C1172.94 166.862 1173.35 167 1173.62 167C1173.9 167 1174.31 166.862 1174.59 166.587L1178.71 162.462C1178.85 162.325 1178.99 162.187 1178.99 162.05C1179.12 161.775 1179.12 161.362 1178.99 160.95C1178.85 160.812 1178.85 160.675 1178.71 160.537Z" fill="#00A02B"/>
<path d="M1161.25 107.188C1161.25 109.8 1163.45 112 1166.06 112C1168.67 112 1170.88 109.8 1170.88 107.188C1170.88 104.575 1168.67 102.375 1166.06 102.375C1163.45 102.375 1161.25 104.575 1161.25 107.188ZM1168.12 107.188C1168.12 108.288 1167.16 109.25 1166.06 109.25C1164.96 109.25 1164 108.288 1164 107.188C1164 106.087 1164.96 105.125 1166.06 105.125C1167.16 105.125 1168.12 106.087 1168.12 107.188Z" fill="#00A02B"/>
<path d="M1198.38 107.188C1198.38 109.8 1200.58 112 1203.19 112C1205.8 112 1208 109.8 1208 107.188C1208 104.575 1205.8 102.375 1203.19 102.375C1200.58 102.375 1198.38 104.575 1198.38 107.188ZM1205.25 107.188C1205.25 108.288 1204.29 109.25 1203.19 109.25C1202.09 109.25 1201.12 108.288 1201.12 107.188C1201.12 106.087 1202.09 105.125 1203.19 105.125C1204.29 105.125 1205.25 106.087 1205.25 107.188Z" fill="#00A02B"/>
<path d="M1239.62 118.875H1177.75C1176.92 118.875 1176.38 119.425 1176.38 120.25V154.625C1176.38 155.45 1176.92 156 1177.75 156H1239.62C1240.45 156 1241 155.45 1241 154.625V120.25C1241 119.425 1240.45 118.875 1239.62 118.875ZM1238.25 153.25H1179.12V121.625H1238.25V153.25Z" fill="#00A02B"/>
<path d="M1208 146.237C1213.36 146.237 1217.62 141.975 1217.62 136.612C1217.62 131.25 1213.36 126.987 1208 126.987C1202.64 126.987 1198.38 131.25 1198.38 136.612C1198.38 141.975 1202.64 146.237 1208 146.237ZM1208 129.737C1211.85 129.737 1214.88 132.762 1214.88 136.612C1214.88 140.462 1211.85 143.487 1208 143.487C1204.15 143.487 1201.12 140.462 1201.12 136.612C1201.12 132.762 1204.15 129.737 1208 129.737Z" fill="#00A02B"/>
<path d="M1189.44 140.875C1192.05 140.875 1194.25 138.675 1194.25 136.062C1194.25 133.45 1192.05 131.25 1189.44 131.25C1186.83 131.25 1184.62 133.45 1184.62 136.062C1184.62 138.675 1186.83 140.875 1189.44 140.875ZM1189.44 134C1190.54 134 1191.5 134.962 1191.5 136.062C1191.5 137.163 1190.54 138.125 1189.44 138.125C1188.34 138.125 1187.38 137.163 1187.38 136.062C1187.38 134.962 1188.34 134 1189.44 134Z" fill="#00A02B"/>
<path d="M1226.56 140.875C1229.17 140.875 1231.38 138.675 1231.38 136.062C1231.38 133.45 1229.17 131.25 1226.56 131.25C1223.95 131.25 1221.75 133.45 1221.75 136.062C1221.75 138.675 1223.95 140.875 1226.56 140.875ZM1226.56 134C1227.66 134 1228.62 134.962 1228.62 136.062C1228.62 137.163 1227.66 138.125 1226.56 138.125C1225.46 138.125 1224.5 137.163 1224.5 136.062C1224.5 134.962 1225.46 134 1226.56 134Z" fill="#00A02B"/>
<path d="M1215.29 85.4625L1219.41 89.5875C1219.69 89.8625 1220.1 90 1220.38 90C1220.79 90 1221.06 89.8625 1221.34 89.5875C1221.89 89.0375 1221.89 88.2125 1221.34 87.6625L1219.55 85.875H1225.05C1230 85.875 1234.12 90 1234.12 94.95V101.825L1232.34 100.038C1231.79 99.4875 1230.96 99.4875 1230.41 100.038C1229.86 100.588 1229.86 101.413 1230.41 101.963L1234.54 106.088C1234.81 106.363 1235.09 106.5 1235.5 106.5C1235.91 106.5 1236.19 106.363 1236.46 106.088L1240.59 101.963C1241.14 101.413 1241.14 100.588 1240.59 100.038C1240.04 99.4875 1239.21 99.4875 1238.66 100.038L1236.88 101.825V94.95C1236.88 88.4875 1231.65 83.125 1225.05 83.125H1219.55L1221.34 81.3375C1221.89 80.7875 1221.89 79.9625 1221.34 79.4125C1220.79 78.8625 1219.96 78.8625 1219.41 79.4125L1215.29 83.5375C1215.15 83.675 1215.01 83.8125 1215.01 83.95C1214.87 84.0875 1214.88 84.225 1214.88 84.5C1214.88 84.6375 1214.87 84.9125 1215.01 85.05C1215.15 85.1875 1215.15 85.325 1215.29 85.4625Z" fill="#00A02B"/>
<path d="M1160.7 86.975L1162.63 85.05L1164.55 86.975L1166.48 85.05L1164.55 83.125L1166.48 81.2L1164.55 79.275L1162.63 81.2L1160.7 79.275L1158.78 81.2L1160.7 83.125L1158.78 85.05L1160.7 86.975Z" fill="#00A02B"/>
<path d="M1221.75 99.625C1220.92 99.625 1220.38 100.175 1220.38 101C1220.38 101.825 1220.92 102.375 1221.75 102.375H1225.88C1226.7 102.375 1227.25 101.825 1227.25 101C1227.25 100.175 1226.7 99.625 1225.88 99.625H1221.75Z" fill="#00A02B"/>
<path d="M1205.25 160.125H1201.12C1200.3 160.125 1199.75 160.675 1199.75 161.5C1199.75 162.325 1200.3 162.875 1201.12 162.875H1205.25C1206.08 162.875 1206.62 162.325 1206.62 161.5C1206.62 160.675 1206.08 160.125 1205.25 160.125Z" fill="#00A02B"/>
<path d="M1228.62 160.125H1224.5C1223.67 160.125 1223.12 160.675 1223.12 161.5C1223.12 162.325 1223.67 162.875 1224.5 162.875H1228.62C1229.45 162.875 1230 162.325 1230 161.5C1230 160.675 1229.45 160.125 1228.62 160.125Z" fill="#00A02B"/>
<path d="M1190.12 85.875H1194.25C1195.08 85.875 1195.62 85.325 1195.62 84.5C1195.62 83.675 1195.08 83.125 1194.25 83.125H1190.12C1189.3 83.125 1188.75 83.675 1188.75 84.5C1188.75 85.325 1189.3 85.875 1190.12 85.875Z" fill="#00A02B"/>
</g>
<path d="M295.708 157.166C278.777 157.166 265 143.389 265 126.458C265 109.526 278.777 95.7491 295.708 95.7491C301.595 95.7491 307.323 97.4267 312.272 100.604C313.244 101.229 313.529 102.525 312.903 103.499C312.276 104.473 310.983 104.755 310.009 104.13C305.737 101.385 300.791 99.9366 295.708 99.9366C281.085 99.9366 269.187 111.835 269.187 126.458C269.187 141.08 281.085 152.978 295.708 152.978C310.33 152.978 322.227 141.08 322.227 126.458C322.227 125.583 322.185 124.718 322.105 123.867C321.993 122.714 322.836 121.692 323.986 121.581C325.142 121.474 326.161 122.312 326.272 123.462C326.367 124.448 326.415 125.447 326.415 126.458C326.415 143.389 312.638 157.166 295.708 157.166Z" fill="#00A02B"/>
<path d="M299.197 133.437C298.661 133.437 298.125 133.233 297.717 132.823L285.155 120.26C284.338 119.442 284.338 118.116 285.155 117.298C285.973 116.48 287.299 116.48 288.117 117.298L299.2 128.381L328.425 99.155C329.243 98.3371 330.569 98.3371 331.387 99.155C332.204 99.9728 332.204 101.299 331.387 102.117L300.679 132.825C300.269 133.233 299.733 133.437 299.197 133.437Z" fill="#00A02B"/>
<path d="M595.5 135.226C593.362 135.226 591.622 136.966 591.622 139.104C591.622 140.789 592.703 142.226 594.207 142.759V146.859C594.207 147.573 594.786 148.152 595.5 148.152C596.214 148.152 596.792 147.573 596.792 146.859V142.759C598.297 142.225 599.377 140.789 599.377 139.104C599.378 136.966 597.638 135.226 595.5 135.226ZM595.5 140.396C594.787 140.396 594.208 139.816 594.208 139.104C594.208 138.391 594.787 137.811 595.5 137.811C596.213 137.811 596.793 138.391 596.793 139.104C596.793 139.816 596.213 140.396 595.5 140.396Z" fill="#00A02B"/>
<path d="M614.027 112.606C620.441 112.606 625.66 107.388 625.66 100.973C625.66 94.559 620.441 89.3405 614.027 89.3405C613.053 89.3405 612.092 89.4605 611.157 89.699C610.028 86.8171 608.09 84.2511 605.606 82.3781C602.675 80.1682 599.18 79 595.5 79C591.82 79 588.325 80.1682 585.394 82.3783C582.91 84.2511 580.972 86.8173 579.843 89.6991C578.908 89.4605 577.948 89.3405 576.974 89.3405C570.559 89.3405 565.341 94.559 565.341 100.973C565.341 107.388 570.559 112.606 576.974 112.606C577.687 112.606 578.266 112.028 578.266 111.314C578.266 110.6 577.687 110.021 576.974 110.021C571.984 110.021 567.926 105.962 567.926 100.973C567.926 95.9845 571.985 91.9257 576.974 91.9257C578.079 91.9257 579.162 92.1245 580.192 92.517C580.527 92.6444 580.9 92.6273 581.222 92.4693C581.544 92.3111 581.785 92.0264 581.889 91.683C583.686 85.7376 589.283 81.585 595.5 81.585C601.717 81.585 607.314 85.7374 609.111 91.6828C609.215 92.0261 609.457 92.3109 609.779 92.4691C610.101 92.6273 610.474 92.6445 610.809 92.5169C611.839 92.1245 612.921 91.9255 614.027 91.9255C619.016 91.9255 623.075 95.9845 623.075 100.973C623.075 105.962 619.016 110.021 614.027 110.021H610.089C609.432 102.547 603.142 96.6648 595.5 96.6648C587.423 96.6648 580.851 103.236 580.851 111.314V123.378H576.974C576.26 123.378 575.681 123.956 575.681 124.67V158.707C575.681 159.421 576.26 160 576.974 160H614.027C614.741 160 615.319 159.421 615.319 158.707V124.67C615.319 123.956 614.741 123.378 614.027 123.378H610.149V112.606H614.027ZM583.436 111.314C583.436 104.662 588.848 99.25 595.5 99.25C602.152 99.25 607.564 104.662 607.564 111.314V123.378H604.979V111.314C604.979 106.087 600.727 101.835 595.5 101.835C590.274 101.835 586.021 106.087 586.021 111.314V123.378H583.436V111.314ZM598.516 110.021H588.73C589.337 106.836 592.141 104.42 595.5 104.42C599.301 104.42 602.394 107.513 602.394 111.314V123.378H588.607V112.606H598.516C599.23 112.606 599.809 112.028 599.809 111.314C599.809 110.6 599.23 110.021 598.516 110.021ZM612.734 125.963V157.415H578.266V125.963H612.734Z" fill="#00A02B"/>
<path d="M588.606 153.537C589.32 153.537 589.899 152.959 589.899 152.245C589.899 151.531 589.32 150.952 588.606 150.952C587.893 150.952 587.314 151.531 587.314 152.245C587.314 152.959 587.893 153.537 588.606 153.537Z" fill="#00A02B"/>
<path d="M583.436 148.367C584.15 148.367 584.729 147.788 584.729 147.075C584.729 146.361 584.15 145.782 583.436 145.782C582.722 145.782 582.144 146.361 582.144 147.075C582.144 147.788 582.722 148.367 583.436 148.367Z" fill="#00A02B"/>
<defs>
<filter id="filter0_d_2121_15" x="138" y="0" width="318" height="303" filterUnits="userSpaceOnUse" color-interpolation-filters="sRGB">
<feFlood flood-opacity="0" result="BackgroundImageFix"/>
<feColorMatrix in="SourceAlpha" type="matrix" values="0 0 0 0 0 0 0 0 0 0 0 0 0 0 0 0 0 0 127 0" result="hardAlpha"/>
<feOffset dy="4"/>
<feGaussianBlur stdDeviation="10"/>
<feComposite in2="hardAlpha" operator="out"/>
<feColorMatrix type="matrix" values="0 0 0 0 0 0 0 0 0 0 0 0 0 0 0 0 0 0 0.1 0"/>
<feBlend mode="normal" in2="BackgroundImageFix" result="effect1_dropShadow_2121_15"/>
<feBlend mode="normal" in="SourceGraphic" in2="effect1_dropShadow_2121_15" result="shape"/>
</filter>
<filter id="filter1_d_2121_15" x="438" y="0" width="318" height="303" filterUnits="userSpaceOnUse" color-interpolation-filters="sRGB">
<feFlood flood-opacity="0" result="BackgroundImageFix"/>
<feColorMatrix in="SourceAlpha" type="matrix" values="0 0 0 0 0 0 0 0 0 0 0 0 0 0 0 0 0 0 127 0" result="hardAlpha"/>
<feOffset dy="4"/>
<feGaussianBlur stdDeviation="10"/>
<feComposite in2="hardAlpha" operator="out"/>
<feColorMatrix type="matrix" values="0 0 0 0 0 0 0 0 0 0 0 0 0 0 0 0 0 0 0.1 0"/>
<feBlend mode="normal" in2="BackgroundImageFix" result="effect1_dropShadow_2121_15"/>
<feBlend mode="normal" in="SourceGraphic" in2="effect1_dropShadow_2121_15" result="shape"/>
</filter>
<filter id="filter2_d_2121_15" x="736" y="0" width="318" height="303" filterUnits="userSpaceOnUse" color-interpolation-filters="sRGB">
<feFlood flood-opacity="0" result="BackgroundImageFix"/>
<feColorMatrix in="SourceAlpha" type="matrix" values="0 0 0 0 0 0 0 0 0 0 0 0 0 0 0 0 0 0 127 0" result="hardAlpha"/>
<feOffset dy="4"/>
<feGaussianBlur stdDeviation="10"/>
<feComposite in2="hardAlpha" operator="out"/>
<feColorMatrix type="matrix" values="0 0 0 0 0 0 0 0 0 0 0 0 0 0 0 0 0 0 0.1 0"/>
<feBlend mode="normal" in2="BackgroundImageFix" result="effect1_dropShadow_2121_15"/>
<feBlend mode="normal" in="SourceGraphic" in2="effect1_dropShadow_2121_15" result="shape"/>
</filter>
<filter id="filter3_d_2121_15" x="1038" y="0" width="318" height="303" filterUnits="userSpaceOnUse" color-interpolation-filters="sRGB">
<feFlood flood-opacity="0" result="BackgroundImageFix"/>
<feColorMatrix in="SourceAlpha" type="matrix" values="0 0 0 0 0 0 0 0 0 0 0 0 0 0 0 0 0 0 127 0" result="hardAlpha"/>
<feOffset dy="4"/>
<feGaussianBlur stdDeviation="10"/>
<feComposite in2="hardAlpha" operator="out"/>
<feColorMatrix type="matrix" values="0 0 0 0 0 0 0 0 0 0 0 0 0 0 0 0 0 0 0.1 0"/>
<feBlend mode="normal" in2="BackgroundImageFix" result="effect1_dropShadow_2121_15"/>
<feBlend mode="normal" in="SourceGraphic" in2="effect1_dropShadow_2121_15" result="shape"/>
</filter>
<clipPath id="clip0_2121_15">
<rect width="81" height="81" fill="white" transform="translate(856 79)"/>
</clipPath>
<clipPath id="clip1_2121_15">
<rect width="88" height="88" fill="white" transform="translate(1153 79)"/>
</clipPath>
</defs>
</svg>
