<svg width="220" height="68" viewBox="0 0 220 68" fill="none" xmlns="http://www.w3.org/2000/svg">
<rect width="220" height="68" rx="10" fill="url(#paint0_linear_2041_11)"/>
<path d="M58.3026 25.4545V40H55.6889V27.642H49.3253V40H46.7116V25.4545H58.3026ZM61.3406 44.0909V29.0909H63.869V30.8949H64.0181C64.1507 30.6297 64.3377 30.348 64.5792 30.0497C64.8207 29.7467 65.1474 29.4886 65.5593 29.2756C65.9712 29.0578 66.4968 28.9489 67.136 28.9489C67.9788 28.9489 68.7388 29.1643 69.4158 29.5952C70.0977 30.0213 70.6374 30.6534 71.0352 31.4915C71.4376 32.3248 71.6388 33.3475 71.6388 34.5597C71.6388 35.7576 71.4424 36.7756 71.0494 37.6136C70.6564 38.4517 70.1213 39.0909 69.4442 39.5312C68.7672 39.9716 68.0001 40.1918 67.1431 40.1918C66.5181 40.1918 65.9996 40.0876 65.5877 39.8793C65.1758 39.6709 64.8443 39.42 64.5934 39.1264C64.3472 38.8281 64.1554 38.5464 64.0181 38.2812H63.9116V44.0909H61.3406ZM63.8619 34.5455C63.8619 35.2509 63.9613 35.8688 64.1602 36.3991C64.3638 36.9295 64.6549 37.3437 65.0337 37.642C65.4173 37.9356 65.8813 38.0824 66.4258 38.0824C66.994 38.0824 67.4698 37.9309 67.8533 37.6278C68.2369 37.3201 68.5257 36.901 68.7198 36.3707C68.9187 35.8357 69.0181 35.2273 69.0181 34.5455C69.0181 33.8684 68.921 33.267 68.7269 32.7415C68.5328 32.2159 68.244 31.804 67.8604 31.5057C67.4769 31.2074 66.9987 31.0582 66.4258 31.0582C65.8765 31.0582 65.4102 31.2027 65.0266 31.4915C64.6431 31.7803 64.3519 32.1851 64.1531 32.706C63.9589 33.2268 63.8619 33.84 63.8619 34.5455ZM78.5991 40.2131C77.5337 40.2131 76.6104 39.9787 75.8292 39.5099C75.0479 39.0412 74.4419 38.3854 74.011 37.5426C73.5849 36.6998 73.3718 35.715 73.3718 34.5881C73.3718 33.4612 73.5849 32.474 74.011 31.6264C74.4419 30.7789 75.0479 30.1207 75.8292 29.652C76.6104 29.1832 77.5337 28.9489 78.5991 28.9489C79.6644 28.9489 80.5877 29.1832 81.369 29.652C82.1502 30.1207 82.7539 30.7789 83.18 31.6264C83.6109 32.474 83.8263 33.4612 83.8263 34.5881C83.8263 35.715 83.6109 36.6998 83.18 37.5426C82.7539 38.3854 82.1502 39.0412 81.369 39.5099C80.5877 39.9787 79.6644 40.2131 78.5991 40.2131ZM78.6133 38.1534C79.1909 38.1534 79.6739 37.9948 80.0621 37.6776C80.4504 37.3556 80.7392 36.9247 80.9286 36.3849C81.1228 35.8452 81.2198 35.2438 81.2198 34.581C81.2198 33.9134 81.1228 33.3097 80.9286 32.7699C80.7392 32.2254 80.4504 31.7921 80.0621 31.4702C79.6739 31.1482 79.1909 30.9872 78.6133 30.9872C78.0214 30.9872 77.529 31.1482 77.136 31.4702C76.7478 31.7921 76.4566 32.2254 76.2624 32.7699C76.073 33.3097 75.9783 33.9134 75.9783 34.581C75.9783 35.2438 76.073 35.8452 76.2624 36.3849C76.4566 36.9247 76.7478 37.3556 77.136 37.6776C77.529 37.9948 78.0214 38.1534 78.6133 38.1534ZM85.0426 43.1676V37.8835H85.9091C86.1411 37.7036 86.3352 37.4598 86.4915 37.152C86.6477 36.8395 86.7756 36.4725 86.875 36.0511C86.9792 35.625 87.0644 35.1491 87.1307 34.6236C87.197 34.0933 87.2562 33.5227 87.3082 32.9119L87.6207 29.0909H95.5043V37.8835H97.1946V43.1676H94.7088V40H87.571V43.1676H85.0426ZM88.5511 37.8835H93.0469V31.1648H89.8509L89.6804 32.9119C89.5857 34.0672 89.4602 35.0568 89.304 35.8807C89.1477 36.7045 88.8968 37.3722 88.5511 37.8835ZM103.873 40.2131C102.807 40.2131 101.884 39.9787 101.103 39.5099C100.321 39.0412 99.7153 38.3854 99.2844 37.5426C98.8583 36.6998 98.6452 35.715 98.6452 34.5881C98.6452 33.4612 98.8583 32.474 99.2844 31.6264C99.7153 30.7789 100.321 30.1207 101.103 29.652C101.884 29.1832 102.807 28.9489 103.873 28.9489C104.938 28.9489 105.861 29.1832 106.642 29.652C107.424 30.1207 108.027 30.7789 108.453 31.6264C108.884 32.474 109.1 33.4612 109.1 34.5881C109.1 35.715 108.884 36.6998 108.453 37.5426C108.027 38.3854 107.424 39.0412 106.642 39.5099C105.861 39.9787 104.938 40.2131 103.873 40.2131ZM103.887 38.1534C104.464 38.1534 104.947 37.9948 105.336 37.6776C105.724 37.3556 106.013 36.9247 106.202 36.3849C106.396 35.8452 106.493 35.2438 106.493 34.581C106.493 33.9134 106.396 33.3097 106.202 32.7699C106.013 32.2254 105.724 31.7921 105.336 31.4702C104.947 31.1482 104.464 30.9872 103.887 30.9872C103.295 30.9872 102.802 31.1482 102.409 31.4702C102.021 31.7921 101.73 32.2254 101.536 32.7699C101.346 33.3097 101.252 33.9134 101.252 34.581C101.252 35.2438 101.346 35.8452 101.536 36.3849C101.73 36.9247 102.021 37.3556 102.409 37.6776C102.802 37.9948 103.295 38.1534 103.887 38.1534ZM110.529 40L110.515 37.8835H110.891C111.175 37.8835 111.415 37.8196 111.609 37.6918C111.803 37.5639 111.964 37.3509 112.092 37.0526C112.219 36.7495 112.319 36.3423 112.39 35.831C112.461 35.3196 112.511 34.6828 112.539 33.9205L112.731 29.0909H120.685V40H118.2V31.2003H115.067L114.897 34.7159C114.854 35.625 114.753 36.4134 114.592 37.081C114.435 37.7438 114.213 38.2907 113.924 38.7216C113.64 39.1525 113.282 39.4744 112.852 39.6875C112.421 39.8958 111.912 40 111.325 40H110.529ZM122.564 40L126.591 34.3679L122.599 29.0909H125.568L128.672 33.4872H129.283V29.0909H131.854V33.4872H132.45L135.554 29.0909H138.523L134.553 34.3679L138.558 40H135.526L132.422 35.5966H131.854V40H129.283V35.5966H128.714L125.597 40H122.564ZM142.96 36.5199L147.328 29.0909H149.97V40H147.484V32.5639L143.13 40H140.481V29.0909H142.96V36.5199ZM151.388 31.2003V29.0909H160.934V31.2003H157.404V40H154.918V31.2003H151.388ZM164.721 32.642H167.939C169.331 32.642 170.408 32.9806 171.17 33.6577C171.932 34.3348 172.316 35.2225 172.321 36.321C172.316 37.036 172.141 37.6705 171.795 38.2244C171.454 38.7784 170.957 39.214 170.304 39.5312C169.655 39.8438 168.867 40 167.939 40H162.981V29.0909H165.46V37.8906H167.939C168.497 37.8906 168.957 37.7486 169.316 37.4645C169.676 37.1757 169.856 36.8063 169.856 36.3565C169.856 35.883 169.676 35.4972 169.316 35.1989C168.957 34.9006 168.497 34.7514 167.939 34.7514H164.721V32.642Z" fill="white"/>
<defs>
<linearGradient id="paint0_linear_2041_11" x1="46.4896" y1="34" x2="197.476" y2="37.3026" gradientUnits="userSpaceOnUse">
<stop stop-color="#008FD2"/>
<stop offset="1" stop-color="#00A02B"/>
</linearGradient>
</defs>
</svg>
