<svg width="433" height="56" viewBox="0 0 433 56" fill="none" xmlns="http://www.w3.org/2000/svg">
<rect width="433" height="56" rx="10" fill="url(#paint0_linear_2150_13)"/>
<path d="M63.4347 20.4545H66.6591L70.9773 30.9943H71.1477L75.4659 20.4545H78.6903V35H76.1619V25.0071H76.027L72.0071 34.9574H70.1179L66.098 24.9858H65.9631V35H63.4347V20.4545ZM83.1861 27.642H86.4034C87.7955 27.642 88.8726 27.9806 89.6349 28.6577C90.3973 29.3348 90.7808 30.2225 90.7855 31.321C90.7808 32.036 90.6056 32.6705 90.2599 33.2244C89.919 33.7784 89.4219 34.214 88.7685 34.5312C88.1198 34.8438 87.3314 35 86.4034 35H81.446V24.0909H83.9247V32.8906H86.4034C86.9621 32.8906 87.4214 32.7486 87.7812 32.4645C88.1411 32.1757 88.321 31.8063 88.321 31.3565C88.321 30.883 88.1411 30.4972 87.7812 30.1989C87.4214 29.9006 86.9621 29.7514 86.4034 29.7514H83.1861V27.642ZM92.142 35V24.0909H94.7131V35H92.142ZM103.923 39.0909C103.573 39.0909 103.248 39.0625 102.95 39.0057C102.656 38.9536 102.422 38.892 102.247 38.821L102.843 36.8182C103.217 36.9271 103.551 36.9792 103.845 36.9744C104.138 36.9697 104.396 36.8774 104.619 36.6974C104.846 36.5223 105.038 36.2287 105.194 35.8168L105.414 35.2273L101.458 24.0909H104.186L106.7 32.3295H106.814L109.335 24.0909H112.069L107.701 36.321C107.498 36.8987 107.228 37.3935 106.892 37.8054C106.556 38.2221 106.144 38.5393 105.656 38.7571C105.173 38.9796 104.595 39.0909 103.923 39.0909ZM113.848 35V24.0909H118.429C119.722 24.0909 120.742 24.349 121.49 24.8651C122.243 25.3812 122.62 26.1009 122.62 27.0241C122.62 27.6349 122.407 28.1345 121.98 28.5227C121.559 28.9062 120.984 29.1643 120.255 29.2969C120.828 29.3442 121.329 29.4886 121.76 29.7301C122.196 29.9716 122.537 30.2888 122.783 30.6818C123.029 31.0748 123.152 31.527 123.152 32.0384C123.152 32.6397 122.994 33.1629 122.676 33.608C122.364 34.0483 121.907 34.3916 121.306 34.6378C120.709 34.8793 119.985 35 119.132 35H113.848ZM116.256 32.9759H119.132C119.606 32.9759 119.978 32.8646 120.248 32.642C120.517 32.4148 120.652 32.107 120.652 31.7188C120.652 31.2689 120.517 30.9162 120.248 30.6605C119.978 30.4001 119.606 30.2699 119.132 30.2699H116.256V32.9759ZM116.256 28.608H118.479C118.829 28.608 119.13 28.5582 119.381 28.4588C119.632 28.3546 119.824 28.2102 119.956 28.0256C120.089 27.8362 120.155 27.6113 120.155 27.3509C120.155 26.9768 120.001 26.6832 119.694 26.4702C119.391 26.2571 118.969 26.1506 118.429 26.1506H116.256V28.608ZM130.104 35.2131C129.01 35.2131 128.065 34.9858 127.27 34.5312C126.479 34.072 125.871 33.4233 125.445 32.5852C125.018 31.7424 124.805 30.7505 124.805 29.6094C124.805 28.4872 125.018 27.5024 125.445 26.6548C125.875 25.8026 126.477 25.1397 127.249 24.6662C128.02 24.188 128.927 23.9489 129.969 23.9489C130.641 23.9489 131.276 24.0578 131.872 24.2756C132.473 24.4886 133.004 24.8201 133.463 25.2699C133.927 25.7197 134.292 26.2926 134.557 26.9886C134.822 27.6799 134.955 28.5038 134.955 29.4602V30.2486H126.013V28.5156H132.49C132.485 28.0232 132.379 27.5852 132.17 27.2017C131.962 26.8134 131.671 26.508 131.297 26.2855C130.928 26.063 130.497 25.9517 130.004 25.9517C129.479 25.9517 129.017 26.0795 128.619 26.3352C128.222 26.5862 127.911 26.9176 127.689 27.3295C127.471 27.7367 127.36 28.1842 127.355 28.6719V30.1847C127.355 30.8191 127.471 31.3636 127.703 31.8182C127.935 32.268 128.259 32.6136 128.676 32.8551C129.093 33.0919 129.58 33.2102 130.139 33.2102C130.513 33.2102 130.852 33.1581 131.155 33.054C131.458 32.9451 131.721 32.7865 131.943 32.5781C132.166 32.3698 132.334 32.1117 132.447 31.804L134.848 32.0739C134.696 32.7083 134.408 33.2623 133.982 33.7358C133.56 34.2045 133.02 34.5691 132.362 34.8295C131.704 35.0852 130.951 35.2131 130.104 35.2131ZM136.377 35L136.363 32.8835H136.739C137.023 32.8835 137.262 32.8196 137.456 32.6918C137.65 32.5639 137.811 32.3509 137.939 32.0526C138.067 31.7495 138.167 31.3423 138.238 30.831C138.309 30.3196 138.358 29.6828 138.387 28.9205L138.578 24.0909H146.533V35H144.047V26.2003H140.915L140.745 29.7159C140.702 30.625 140.6 31.4134 140.439 32.081C140.283 32.7438 140.06 33.2907 139.772 33.7216C139.488 34.1525 139.13 34.4744 138.699 34.6875C138.268 34.8958 137.759 35 137.172 35H136.377ZM151.6 31.5199L155.968 24.0909H158.61V35H156.125V27.5639L151.771 35H149.122V24.0909H151.6V31.5199ZM170.363 24.0909V35H167.891V24.0909H170.363ZM169.205 29.0199V31.1222C168.926 31.2453 168.609 31.3565 168.254 31.456C167.903 31.5507 167.531 31.6264 167.138 31.6832C166.75 31.7401 166.362 31.7685 165.974 31.7685C164.515 31.7685 163.362 31.4418 162.515 30.7884C161.672 30.1302 161.251 29.1051 161.251 27.7131V24.0767H163.708V27.7131C163.708 28.1818 163.791 28.5582 163.957 28.8423C164.122 29.1264 164.373 29.3348 164.71 29.4673C165.046 29.5952 165.467 29.6591 165.974 29.6591C166.542 29.6591 167.082 29.6023 167.593 29.4886C168.104 29.375 168.642 29.2188 169.205 29.0199ZM175.429 31.5199L179.797 24.0909H182.439V35H179.953V27.5639L175.599 35H172.95V24.0909H175.429V31.5199ZM184.326 35L184.312 32.8835H184.688C184.972 32.8835 185.211 32.8196 185.406 32.6918C185.6 32.5639 185.761 32.3509 185.888 32.0526C186.016 31.7495 186.116 31.3423 186.187 30.831C186.258 30.3196 186.308 29.6828 186.336 28.9205L186.528 24.0909H194.482V35H191.996V26.2003H188.864L188.694 29.7159C188.651 30.625 188.549 31.4134 188.388 32.081C188.232 32.7438 188.01 33.2907 187.721 33.7216C187.437 34.1525 187.079 34.4744 186.648 34.6875C186.218 34.8958 185.709 35 185.121 35H184.326ZM199.55 31.5199L203.918 24.0909H206.56V35H204.074V27.5639L199.72 35H197.071V24.0909H199.55V31.5199ZM214.161 35V24.0909H223.373V35H220.894V26.2003H216.618V35H214.161ZM226.016 39.0909V24.0909H228.545V25.8949H228.694C228.826 25.6297 229.013 25.348 229.255 25.0497C229.496 24.7467 229.823 24.4886 230.235 24.2756C230.647 24.0578 231.173 23.9489 231.812 23.9489C232.655 23.9489 233.415 24.1643 234.092 24.5952C234.773 25.0213 235.313 25.6534 235.711 26.4915C236.113 27.3248 236.315 28.3475 236.315 29.5597C236.315 30.7576 236.118 31.7756 235.725 32.6136C235.332 33.4517 234.797 34.0909 234.12 34.5312C233.443 34.9716 232.676 35.1918 231.819 35.1918C231.194 35.1918 230.675 35.0876 230.263 34.8793C229.852 34.6709 229.52 34.42 229.269 34.1264C229.023 33.8281 228.831 33.5464 228.694 33.2812H228.587V39.0909H226.016ZM228.538 29.5455C228.538 30.2509 228.637 30.8688 228.836 31.3991C229.04 31.9295 229.331 32.3437 229.71 32.642C230.093 32.9356 230.557 33.0824 231.102 33.0824C231.67 33.0824 232.146 32.9309 232.529 32.6278C232.913 32.3201 233.201 31.901 233.396 31.3707C233.594 30.8357 233.694 30.2273 233.694 29.5455C233.694 28.8684 233.597 28.267 233.403 27.7415C233.209 27.2159 232.92 26.804 232.536 26.5057C232.153 26.2074 231.674 26.0582 231.102 26.0582C230.552 26.0582 230.086 26.2027 229.702 26.4915C229.319 26.7803 229.028 27.1851 228.829 27.706C228.635 28.2268 228.538 28.84 228.538 29.5455ZM243.275 35.2131C242.21 35.2131 241.286 34.9787 240.505 34.5099C239.724 34.0412 239.118 33.3854 238.687 32.5426C238.261 31.6998 238.048 30.715 238.048 29.5881C238.048 28.4612 238.261 27.474 238.687 26.6264C239.118 25.7789 239.724 25.1207 240.505 24.652C241.286 24.1832 242.21 23.9489 243.275 23.9489C244.34 23.9489 245.263 24.1832 246.045 24.652C246.826 25.1207 247.43 25.7789 247.856 26.6264C248.287 27.474 248.502 28.4612 248.502 29.5881C248.502 30.715 248.287 31.6998 247.856 32.5426C247.43 33.3854 246.826 34.0412 246.045 34.5099C245.263 34.9787 244.34 35.2131 243.275 35.2131ZM243.289 33.1534C243.867 33.1534 244.35 32.9948 244.738 32.6776C245.126 32.3556 245.415 31.9247 245.604 31.3849C245.799 30.8452 245.896 30.2438 245.896 29.581C245.896 28.9134 245.799 28.3097 245.604 27.7699C245.415 27.2254 245.126 26.7921 244.738 26.4702C244.35 26.1482 243.867 25.9872 243.289 25.9872C242.697 25.9872 242.205 26.1482 241.812 26.4702C241.424 26.7921 241.132 27.2254 240.938 27.7699C240.749 28.3097 240.654 28.9134 240.654 29.581C240.654 30.2438 240.749 30.8452 240.938 31.3849C241.132 31.9247 241.424 32.3556 241.812 32.6776C242.205 32.9948 242.697 33.1534 243.289 33.1534ZM259.896 24.0909V33.0824H261.565V38.5085H259.051V35H250.684V24.0909H253.163V32.8906H257.439V24.0909H259.896ZM268.385 35.2131C267.291 35.2131 266.347 34.9858 265.551 34.5312C264.76 34.072 264.152 33.4233 263.726 32.5852C263.3 31.7424 263.087 30.7505 263.087 29.6094C263.087 28.4872 263.3 27.5024 263.726 26.6548C264.157 25.8026 264.758 25.1397 265.53 24.6662C266.302 24.188 267.208 23.9489 268.25 23.9489C268.922 23.9489 269.557 24.0578 270.153 24.2756C270.755 24.4886 271.285 24.8201 271.744 25.2699C272.208 25.7197 272.573 26.2926 272.838 26.9886C273.103 27.6799 273.236 28.5038 273.236 29.4602V30.2486H264.294V28.5156H270.771C270.767 28.0232 270.66 27.5852 270.452 27.2017C270.243 26.8134 269.952 26.508 269.578 26.2855C269.209 26.063 268.778 25.9517 268.286 25.9517C267.76 25.9517 267.298 26.0795 266.901 26.3352C266.503 26.5862 266.193 26.9176 265.97 27.3295C265.752 27.7367 265.641 28.1842 265.636 28.6719V30.1847C265.636 30.8191 265.752 31.3636 265.984 31.8182C266.216 32.268 266.541 32.6136 266.957 32.8551C267.374 33.0919 267.862 33.2102 268.42 33.2102C268.795 33.2102 269.133 33.1581 269.436 33.054C269.739 32.9451 270.002 32.7865 270.224 32.5781C270.447 32.3698 270.615 32.1117 270.729 31.804L273.129 32.0739C272.978 32.7083 272.689 33.2623 272.263 33.7358C271.841 34.2045 271.302 34.5691 270.643 34.8295C269.985 35.0852 269.232 35.2131 268.385 35.2131ZM282.904 28.4801V30.5895H277.094V28.4801H282.904ZM277.89 24.0909V35H275.411V24.0909H277.89ZM284.587 24.0909V35H282.115V24.0909H284.587ZM285.967 26.2003V24.0909H295.512V26.2003H291.982V35H289.496V26.2003H285.967ZM307.279 35.2131C306.213 35.2131 305.29 34.9787 304.509 34.5099C303.728 34.0412 303.122 33.3854 302.691 32.5426C302.265 31.6998 302.051 30.715 302.051 29.5881C302.051 28.4612 302.265 27.474 302.691 26.6264C303.122 25.7789 303.728 25.1207 304.509 24.652C305.29 24.1832 306.213 23.9489 307.279 23.9489C308.344 23.9489 309.267 24.1832 310.049 24.652C310.83 25.1207 311.434 25.7789 311.86 26.6264C312.291 27.474 312.506 28.4612 312.506 29.5881C312.506 30.715 312.291 31.6998 311.86 32.5426C311.434 33.3854 310.83 34.0412 310.049 34.5099C309.267 34.9787 308.344 35.2131 307.279 35.2131ZM307.293 33.1534C307.871 33.1534 308.354 32.9948 308.742 32.6776C309.13 32.3556 309.419 31.9247 309.608 31.3849C309.802 30.8452 309.9 30.2438 309.9 29.581C309.9 28.9134 309.802 28.3097 309.608 27.7699C309.419 27.2254 309.13 26.7921 308.742 26.4702C308.354 26.1482 307.871 25.9872 307.293 25.9872C306.701 25.9872 306.209 26.1482 305.816 26.4702C305.427 26.7921 305.136 27.2254 304.942 27.7699C304.753 28.3097 304.658 28.9134 304.658 29.581C304.658 30.2438 304.753 30.8452 304.942 31.3849C305.136 31.9247 305.427 32.3556 305.816 32.6776C306.209 32.9948 306.701 33.1534 307.293 33.1534ZM313.722 38.1676V32.8835H314.589C314.821 32.7036 315.015 32.4598 315.171 32.152C315.327 31.8395 315.455 31.4725 315.555 31.0511C315.659 30.625 315.744 30.1491 315.81 29.6236C315.877 29.0933 315.936 28.5227 315.988 27.9119L316.3 24.0909H324.184V32.8835H325.874V38.1676H323.388V35H316.251V38.1676H313.722ZM317.231 32.8835H321.727V26.1648H318.531L318.36 27.9119C318.265 29.0672 318.14 30.0568 317.984 30.8807C317.827 31.7045 317.576 32.3722 317.231 32.8835ZM332.552 35.2131C331.487 35.2131 330.564 34.9787 329.782 34.5099C329.001 34.0412 328.395 33.3854 327.964 32.5426C327.538 31.6998 327.325 30.715 327.325 29.5881C327.325 28.4612 327.538 27.474 327.964 26.6264C328.395 25.7789 329.001 25.1207 329.782 24.652C330.564 24.1832 331.487 23.9489 332.552 23.9489C333.618 23.9489 334.541 24.1832 335.322 24.652C336.103 25.1207 336.707 25.7789 337.133 26.6264C337.564 27.474 337.779 28.4612 337.779 29.5881C337.779 30.715 337.564 31.6998 337.133 32.5426C336.707 33.3854 336.103 34.0412 335.322 34.5099C334.541 34.9787 333.618 35.2131 332.552 35.2131ZM332.566 33.1534C333.144 33.1534 333.627 32.9948 334.015 32.6776C334.404 32.3556 334.692 31.9247 334.882 31.3849C335.076 30.8452 335.173 30.2438 335.173 29.581C335.173 28.9134 335.076 28.3097 334.882 27.7699C334.692 27.2254 334.404 26.7921 334.015 26.4702C333.627 26.1482 333.144 25.9872 332.566 25.9872C331.975 25.9872 331.482 26.1482 331.089 26.4702C330.701 26.7921 330.41 27.2254 330.216 27.7699C330.026 28.3097 329.931 28.9134 329.931 29.581C329.931 30.2438 330.026 30.8452 330.216 31.3849C330.41 31.9247 330.701 32.3556 331.089 32.6776C331.482 32.9948 331.975 33.1534 332.566 33.1534ZM348.705 20.0568L349.599 21.7188C349.282 21.9934 348.927 22.1922 348.534 22.3153C348.141 22.4384 347.679 22.5189 347.149 22.5568C346.624 22.59 345.999 22.6136 345.274 22.6278C344.46 22.6468 343.795 22.8007 343.278 23.0895C342.762 23.3783 342.367 23.8163 342.092 24.4034C341.818 24.9858 341.638 25.7292 341.553 26.6335H341.673C342.014 25.9659 342.492 25.4569 343.108 25.1065C343.723 24.7562 344.446 24.581 345.274 24.581C346.179 24.581 346.976 24.7846 347.668 25.1918C348.364 25.5942 348.906 26.179 349.294 26.946C349.687 27.7131 349.884 28.6411 349.884 29.7301C349.884 30.8523 349.673 31.8253 349.251 32.6491C348.83 33.4683 348.231 34.1004 347.455 34.5455C346.683 34.9905 345.767 35.2131 344.706 35.2131C343.65 35.2131 342.732 34.9834 341.95 34.5241C341.174 34.0601 340.572 33.3759 340.146 32.4716C339.725 31.5625 339.514 30.4427 339.514 29.1122V28.1321C339.514 25.5658 339.992 23.6506 340.949 22.3864C341.905 21.1222 343.323 20.4782 345.203 20.4545C345.762 20.4451 346.261 20.4427 346.702 20.4474C347.147 20.4522 347.535 20.4309 347.866 20.3835C348.198 20.3362 348.477 20.2273 348.705 20.0568ZM344.72 33.1534C345.246 33.1534 345.7 33.0185 346.084 32.7486C346.467 32.474 346.761 32.0857 346.964 31.5838C347.173 31.0819 347.277 30.4877 347.277 29.8011C347.277 29.1241 347.173 28.5488 346.964 28.0753C346.756 27.5971 346.46 27.2325 346.077 26.9815C345.693 26.7306 345.236 26.6051 344.706 26.6051C344.308 26.6051 343.951 26.6761 343.634 26.8182C343.316 26.9602 343.046 27.1686 342.824 27.4432C342.601 27.7178 342.431 28.0516 342.312 28.4446C342.194 28.8376 342.13 29.2898 342.121 29.8011C342.121 30.8286 342.353 31.6454 342.817 32.2514C343.281 32.8527 343.915 33.1534 344.72 33.1534ZM352.071 39.0909V24.0909H354.599V25.8949H354.749C354.881 25.6297 355.068 25.348 355.31 25.0497C355.551 24.7467 355.878 24.4886 356.29 24.2756C356.702 24.0578 357.227 23.9489 357.866 23.9489C358.709 23.9489 359.469 24.1643 360.146 24.5952C360.828 25.0213 361.368 25.6534 361.766 26.4915C362.168 27.3248 362.369 28.3475 362.369 29.5597C362.369 30.7576 362.173 31.7756 361.78 32.6136C361.387 33.4517 360.852 34.0909 360.175 34.5312C359.498 34.9716 358.731 35.1918 357.874 35.1918C357.249 35.1918 356.73 35.0876 356.318 34.8793C355.906 34.6709 355.575 34.42 355.324 34.1264C355.078 33.8281 354.886 33.5464 354.749 33.2812H354.642V39.0909H352.071ZM354.592 29.5455C354.592 30.2509 354.692 30.8688 354.891 31.3991C355.094 31.9295 355.385 32.3437 355.764 32.642C356.148 32.9356 356.612 33.0824 357.156 33.0824C357.724 33.0824 358.2 32.9309 358.584 32.6278C358.967 32.3201 359.256 31.901 359.45 31.3707C359.649 30.8357 359.749 30.2273 359.749 29.5455C359.749 28.8684 359.652 28.267 359.457 27.7415C359.263 27.2159 358.974 26.804 358.591 26.5057C358.207 26.2074 357.729 26.0582 357.156 26.0582C356.607 26.0582 356.141 26.2027 355.757 26.4915C355.374 26.7803 355.082 27.1851 354.884 27.706C354.689 28.2268 354.592 28.84 354.592 29.5455ZM369.401 35.2131C368.307 35.2131 367.362 34.9858 366.567 34.5312C365.776 34.072 365.168 33.4233 364.741 32.5852C364.315 31.7424 364.102 30.7505 364.102 29.6094C364.102 28.4872 364.315 27.5024 364.741 26.6548C365.172 25.8026 365.774 25.1397 366.545 24.6662C367.317 24.188 368.224 23.9489 369.266 23.9489C369.938 23.9489 370.572 24.0578 371.169 24.2756C371.77 24.4886 372.301 24.8201 372.76 25.2699C373.224 25.7197 373.589 26.2926 373.854 26.9886C374.119 27.6799 374.251 28.5038 374.251 29.4602V30.2486H365.31V28.5156H371.787C371.782 28.0232 371.676 27.5852 371.467 27.2017C371.259 26.8134 370.968 26.508 370.594 26.2855C370.224 26.063 369.794 25.9517 369.301 25.9517C368.776 25.9517 368.314 26.0795 367.916 26.3352C367.518 26.5862 367.208 26.9176 366.986 27.3295C366.768 27.7367 366.657 28.1842 366.652 28.6719V30.1847C366.652 30.8191 366.768 31.3636 367 31.8182C367.232 32.268 367.556 32.6136 367.973 32.8551C368.39 33.0919 368.877 33.2102 369.436 33.2102C369.81 33.2102 370.149 33.1581 370.452 33.054C370.755 32.9451 371.018 32.7865 371.24 32.5781C371.463 32.3698 371.631 32.1117 371.744 31.804L374.145 32.0739C373.993 32.7083 373.705 33.2623 373.278 33.7358C372.857 34.2045 372.317 34.5691 371.659 34.8295C371.001 35.0852 370.248 35.2131 369.401 35.2131ZM383.919 28.4801V30.5895H378.11V28.4801H383.919ZM378.905 24.0909V35H376.426V24.0909H378.905ZM385.603 24.0909V35H383.131V24.0909H385.603ZM390.683 31.5199L395.05 24.0909H397.692V35H395.207V27.5639L390.853 35H388.204V24.0909H390.683V31.5199ZM402.811 31.5199L407.179 24.0909H409.821V35H407.336V27.5639L402.982 35H400.333V24.0909H402.811V31.5199ZM406.476 20.3409H408.401C408.401 21.1695 408.1 21.8419 407.499 22.358C406.902 22.8693 406.093 23.125 405.07 23.125C404.057 23.125 403.249 22.8693 402.648 22.358C402.051 21.8419 401.756 21.1695 401.76 20.3409H403.671C403.671 20.6818 403.775 20.9872 403.983 21.2571C404.196 21.5223 404.559 21.6548 405.07 21.6548C405.572 21.6548 405.929 21.5223 406.142 21.2571C406.36 20.992 406.471 20.6866 406.476 20.3409Z" fill="white"/>
<g clip-path="url(#clip0_2150_13)">
<path d="M44.2707 26.1297H40.7484L41.6511 23.0115V22.1957C41.6511 21.5328 41.1118 20.9936 40.449 20.9936C40.3015 20.9936 40.1814 21.1137 40.1814 21.2613V22.2328C40.1814 22.6368 39.9334 22.9393 39.3776 23.4647C39.0763 23.7494 37.0169 25.4899 36.6808 25.7614V26.6944V32.1641L38.2589 32.756C38.8566 32.9801 39.4833 33.0937 40.1215 33.0937H44.2493H44.2708C44.6988 33.0937 45.047 32.7455 45.047 32.3175V26.906C45.047 26.4778 44.6988 26.1297 44.2707 26.1297Z" fill="white"/>
<path d="M35.0402 26.6943V25.8328H32.953V32.7993H35.0402V26.6943Z" fill="white"/>
<path d="M49.2355 16.0256H28.7645C26.6887 16.0256 25 17.7144 25 19.7901V34.7098C25 36.7856 26.6887 38.4743 28.7645 38.4743H29.9934V43.9743L38.2086 38.4743H49.2355C51.3113 38.4743 53.0001 36.7856 53.0001 34.7098V19.7901C53 17.7144 51.3113 16.0256 49.2355 16.0256ZM46.6876 32.3174C46.6876 33.65 45.6034 34.7342 44.2707 34.7342H44.2492H40.1215C39.2859 34.7342 38.4654 34.5854 37.6829 34.292L36.6808 33.9162V34.4399H31.3124V24.1922H36.012C37.099 23.3056 38.1828 22.3739 38.5407 21.9878V21.2613C38.5407 20.2091 39.3967 19.353 40.4489 19.353C42.0165 19.353 43.2917 20.6282 43.2917 22.1957V23.2441L42.9313 24.489H44.2707C45.6034 24.489 46.6875 25.5732 46.6875 26.9058V32.3174H46.6876Z" fill="white"/>
</g>
<defs>
<linearGradient id="paint0_linear_2150_13" x1="91.5" y1="28" x2="388" y2="43.5" gradientUnits="userSpaceOnUse">
<stop stop-color="#008FD2"/>
<stop offset="1" stop-color="#00A02B"/>
</linearGradient>
<clipPath id="clip0_2150_13">
<rect width="28" height="28" fill="white" transform="translate(25 16)"/>
</clipPath>
</defs>
</svg>
