<svg width="132" height="45" viewBox="0 0 132 45" fill="none" xmlns="http://www.w3.org/2000/svg">
<rect width="132" height="45" rx="10" fill="url(#paint0_linear_2031_11)"/>
<path d="M39.8182 15.4545H42.4105V27.8125H46.8991V15.4545H49.4773V27.8125H53.9304V15.4545H56.5085V30H39.8182V15.4545ZM62.7923 30.2202C62.101 30.2202 61.4783 30.0971 60.9244 29.8509C60.3751 29.5999 59.9395 29.2306 59.6175 28.7429C59.3003 28.2552 59.1417 27.6539 59.1417 26.9389C59.1417 26.3234 59.2553 25.8144 59.4826 25.4119C59.7099 25.0095 60.02 24.6875 60.413 24.446C60.806 24.2045 61.2487 24.0223 61.7411 23.8991C62.2383 23.7713 62.752 23.679 63.2823 23.6222C63.9215 23.5559 64.44 23.4967 64.8377 23.4446C65.2354 23.3878 65.5243 23.3026 65.7042 23.1889C65.8888 23.0705 65.9812 22.8883 65.9812 22.642V22.5994C65.9812 22.0644 65.8226 21.6501 65.5053 21.3565C65.1881 21.063 64.7312 20.9162 64.1346 20.9162C63.5049 20.9162 63.0053 21.0535 62.636 21.3281C62.2714 21.6027 62.0252 21.9271 61.8974 22.3011L59.4968 21.9602C59.6862 21.2973 59.9987 20.7434 60.4343 20.2983C60.8699 19.8485 61.4026 19.5123 62.0323 19.2898C62.6621 19.0625 63.3581 18.9489 64.1204 18.9489C64.646 18.9489 65.1692 19.0104 65.69 19.1335C66.2108 19.2566 66.6867 19.4602 67.1175 19.7443C67.5484 20.0237 67.8941 20.4048 68.1545 20.8878C68.4196 21.3707 68.5522 21.9744 68.5522 22.6989V30H66.0806V28.5014H65.9954C65.8391 28.8045 65.619 29.0885 65.3349 29.3537C65.0555 29.6141 64.7028 29.8248 64.2766 29.9858C63.8552 30.142 63.3604 30.2202 62.7923 30.2202ZM63.4599 28.331C63.976 28.331 64.4234 28.2292 64.8022 28.0256C65.181 27.8172 65.4722 27.5426 65.6758 27.2017C65.8841 26.8608 65.9883 26.4891 65.9883 26.0866V24.8011C65.9078 24.8674 65.7705 24.929 65.5763 24.9858C65.387 25.0426 65.1739 25.0923 64.9371 25.1349C64.7004 25.1776 64.466 25.2154 64.234 25.2486C64.002 25.2817 63.8008 25.3101 63.6303 25.3338C63.2468 25.3859 62.9035 25.4711 62.6005 25.5895C62.2975 25.7079 62.0584 25.8736 61.8832 26.0866C61.708 26.295 61.6204 26.5649 61.6204 26.8963C61.6204 27.3698 61.7932 27.7273 62.1388 27.9688C62.4845 28.2102 62.9248 28.331 63.4599 28.331ZM78.3533 19.0909V21.2003H73.6516V30H71.1374V19.0909H78.3533ZM91.2635 15.4545V30H88.6286V18.0185H88.5433L85.1413 20.1918V17.777L88.7564 15.4545H91.2635Z" fill="white"/>
<defs>
<linearGradient id="paint0_linear_2031_11" x1="27.8938" y1="22.5" x2="118.493" y2="24.2968" gradientUnits="userSpaceOnUse">
<stop stop-color="#008FD2"/>
<stop offset="1" stop-color="#00A02B"/>
</linearGradient>
</defs>
</svg>
